<svg width="14" height="24" viewBox="0 0 14 24" fill="none" xmlns="http://www.w3.org/2000/svg">
<path d="M7.01922 0.000441895C7.19035 0.00344217 7.3586 0.0733961 7.4709 0.187942L13.8515 8.09662C14.006 8.25423 14.0444 8.49385 13.9456 8.68343C13.8468 8.87303 13.6161 9.00229 13.3806 9L9.56207 9L9.56207 23.4545C9.56204 23.7401 9.26905 24 8.94703 24L5.05297 24C4.73095 23.9999 4.43796 23.7401 4.43793 23.4545L4.43793 9L0.619446 9C0.383932 9.00273 0.153221 8.87303 0.0543942 8.68343C-0.0444303 8.49385 -0.00598865 8.25423 0.14855 8.09662L6.52911 0.187942C6.64973 0.0646699 6.83534 -0.00632158 7.01922 0.000441895Z" fill="#FAFAFA"/>
</svg>
