<svg width="54" height="54" viewBox="0 0 54 54" fill="none" xmlns="http://www.w3.org/2000/svg">
<path fill-rule="evenodd" clip-rule="evenodd" d="M3.47051 26.9997C3.47051 14.0047 14.005 3.47026 26.9999 3.47026C39.9949 3.47026 50.5293 14.0047 50.5293 26.9997C50.5293 39.9946 39.9949 50.5291 26.9999 50.5291C14.005 50.5291 3.47051 39.9946 3.47051 26.9997ZM26.9999 0.333008C12.2723 0.333008 0.333252 12.2721 0.333252 26.9997C0.333252 41.7273 12.2723 53.6663 26.9999 53.6663C41.7275 53.6663 53.6666 41.7273 53.6666 26.9997C53.6666 12.2721 41.7275 0.333008 26.9999 0.333008ZM40.9502 24.0911C41.572 23.4879 41.587 22.4948 40.9837 21.873C40.3805 21.2512 39.3874 21.2362 38.7656 21.8395L26.9742 33.2799L15.5728 21.8572C14.9608 21.244 13.9676 21.2431 13.3544 21.8551C12.7413 22.4671 12.7404 23.4603 13.3524 24.0735L25.8464 36.5908L26.9389 37.6854L28.0489 36.6084L40.9502 24.0911Z" fill="#FAFAFA"/>
</svg>
