<svg width="32" height="32" viewBox="0 0 32 32" fill="none" xmlns="http://www.w3.org/2000/svg">
<path fill-rule="evenodd" clip-rule="evenodd" d="M5.45514 0.935955C4.2072 -0.311985 2.18389 -0.311985 0.935954 0.935955C-0.311986 2.18389 -0.311984 4.20721 0.935955 5.45515L11.481 16.0002L0.936411 26.5448C-0.311529 27.7927 -0.311528 29.816 0.936411 31.064C2.18435 32.3119 4.20766 32.3119 5.4556 31.064L16.0002 20.5194L26.5447 31.0639C27.7926 32.3118 29.8159 32.3118 31.0639 31.0639C32.3118 29.8159 32.3118 27.7926 31.0639 26.5447L20.5194 16.0002L31.0643 5.45522C32.3123 4.20728 32.3123 2.18397 31.0643 0.936033C29.8164 -0.311907 27.7931 -0.311905 26.5451 0.936035L16.0002 11.481L5.45514 0.935955Z" fill="#21212B"/>
</svg>
