<svg width="16" height="16" viewBox="0 0 16 16" fill="none" xmlns="http://www.w3.org/2000/svg">
<path fill-rule="evenodd" clip-rule="evenodd" d="M2.72757 0.467977C2.1036 -0.155992 1.09195 -0.155992 0.467977 0.467977C-0.155993 1.09195 -0.155992 2.1036 0.467978 2.72757L5.7405 8.00009L0.468205 13.2724C-0.155764 13.8964 -0.155764 14.908 0.468206 15.532C1.09218 16.156 2.10383 16.156 2.7278 15.532L8.00009 10.2597L13.2723 15.5319C13.8963 16.1559 14.908 16.1559 15.5319 15.5319C16.1559 14.908 16.1559 13.8963 15.5319 13.2723L10.2597 8.00009L15.5322 2.72761C16.1561 2.10364 16.1561 1.09199 15.5322 0.468016C14.9082 -0.155953 13.8965 -0.155953 13.2726 0.468018L8.00009 5.7405L2.72757 0.467977Z" fill="#FAFAFA"/>
</svg>
