<svg width="113" height="45" viewBox="0 0 113 45" fill="none" xmlns="http://www.w3.org/2000/svg">
<path d="M15.2797 44.3044C20.6336 44.3044 25.0451 42.633 28.5141 39.2904C31.9831 35.9477 33.7176 31.6339 33.7176 26.3487V19.2197C33.7176 13.9543 31.9831 9.64041 28.5141 6.27804C25.0451 2.91567 20.6336 1.23448 15.2797 1.23448H0V44.3044H15.2797ZM15.2797 37.6782H8.78281V7.8902H15.2797C18.1672 7.8902 20.4932 8.94525 22.2578 11.0554C24.0224 13.1655 24.9047 15.8672 24.9047 19.1605V26.3487C24.9047 29.6618 24.0224 32.3783 22.2578 34.4983C20.4932 36.6182 18.1672 37.6782 15.2797 37.6782ZM57.2688 44.9256C62.4221 44.9256 66.4626 43.624 69.3902 41.0209C72.3178 38.4178 73.7415 34.8187 73.6613 30.2238L73.6012 30.0463H65.0891C65.0891 32.8467 64.4424 34.9223 63.149 36.2731C61.8557 37.624 59.8956 38.2994 57.2688 38.2994C54.5016 38.2994 52.341 37.2542 50.7869 35.1638C49.2329 33.0735 48.4559 30.3717 48.4559 27.0587V18.4506C48.4559 15.1573 49.1928 12.4703 50.6666 10.3898C52.1404 8.30926 54.1908 7.269 56.8176 7.269C59.6449 7.269 61.7354 7.94443 63.0889 9.29529C64.4424 10.6462 65.1191 12.702 65.1191 15.4629H73.6613L73.7215 15.2854C73.8017 10.6314 72.3379 7.02249 69.3301 4.45881C66.3223 1.89512 62.1514 0.613281 56.8176 0.613281C51.7043 0.613281 47.5736 2.28461 44.4254 5.62725C41.2772 8.9699 39.7031 13.2641 39.7031 18.5098V27.0587C39.7031 32.3241 41.3173 36.6182 44.5457 39.9412C47.7741 43.2641 52.0151 44.9256 57.2688 44.9256ZM88.7305 44.3044V28.6856H96.7012C101.734 28.6856 105.695 27.4334 108.582 24.9288C111.47 22.4243 112.913 19.1112 112.913 14.9896C112.913 10.868 111.47 7.54509 108.582 5.02085C105.695 2.4966 101.734 1.23448 96.7012 1.23448H79.9477V44.3044H88.7305ZM96.7012 22.0299H88.7305V7.8902H96.7012C99.1676 7.8902 101.027 8.56563 102.281 9.9165C103.534 11.2674 104.161 12.9781 104.161 15.0488C104.161 17.08 103.529 18.7513 102.266 20.0628C101.002 21.3742 99.1475 22.0299 96.7012 22.0299Z" fill="#FAFAFA"/>
</svg>
