<svg width="48" height="64" viewBox="0 0 48 64" fill="none" xmlns="http://www.w3.org/2000/svg">
<path fill-rule="evenodd" clip-rule="evenodd" d="M0 24.4314C0 10.9378 10.7447 0 24 0C37.2553 0 48 10.9378 48 24.4314C48 39.1018 36.7582 51.5345 27.4772 61.7987C27.1472 62.1637 26.8196 62.526 26.4951 62.8855C25.1531 64.3715 22.8469 64.3715 21.5049 62.8855C21.1804 62.526 20.8528 62.1637 20.5228 61.7987C11.2418 51.5345 0 39.1018 0 24.4314ZM24 40C32.8366 40 40 32.8366 40 24C40 15.1634 32.8366 8 24 8C15.1634 8 8 15.1634 8 24C8 32.8366 15.1634 40 24 40Z" fill="#FAFAFA"/>
</svg>
