<svg width="40" height="30" viewBox="0 0 40 30" fill="none" xmlns="http://www.w3.org/2000/svg">
<path fill-rule="evenodd" clip-rule="evenodd" d="M0 3C0 1.34315 1.34315 0 3 0H37C38.6569 0 40 1.34315 40 3C40 4.65685 38.6569 6 37 6H3C1.34315 6 0 4.65685 0 3ZM0 27C0 25.3431 1.34315 24 3 24H37C38.6569 24 40 25.3431 40 27C40 28.6569 38.6569 30 37 30H3C1.34315 30 0 28.6569 0 27ZM3 12C1.34315 12 0 13.3431 0 15C0 16.6569 1.34315 18 3 18H37C38.6569 18 40 16.6569 40 15C40 13.3431 38.6569 12 37 12H3Z" fill="#FAFAFA"/>
</svg>
