<?xml version="1.0" encoding="UTF-8" standalone="no"?>
<svg
   xmlns:dc="http://purl.org/dc/elements/1.1/"
   xmlns:cc="http://creativecommons.org/ns#"
   xmlns:rdf="http://www.w3.org/1999/02/22-rdf-syntax-ns#"
   xmlns:svg="http://www.w3.org/2000/svg"
   xmlns="http://www.w3.org/2000/svg"
   xmlns:sodipodi="http://sodipodi.sourceforge.net/DTD/sodipodi-0.dtd"
   xmlns:inkscape="http://www.inkscape.org/namespaces/inkscape"
   width="50"
   height="50"
   viewBox="0 0 50 50"
   fill="none"
   version="1.1"
   id="svg42"
   sodipodi:docname="new.svg"
   inkscape:version="1.0.1 (3bc2e813f5, 2020-09-07)">
  <metadata
     id="metadata48">
    <rdf:RDF>
      <cc:Work
         rdf:about="">
        <dc:format>image/svg+xml</dc:format>
        <dc:type
           rdf:resource="http://purl.org/dc/dcmitype/StillImage" />
        <dc:title></dc:title>
      </cc:Work>
    </rdf:RDF>
  </metadata>
  <defs
     id="defs46" />
  <sodipodi:namedview
     pagecolor="#ffffff"
     bordercolor="#666666"
     borderopacity="1"
     objecttolerance="10"
     gridtolerance="10"
     guidetolerance="10"
     inkscape:pageopacity="0"
     inkscape:pageshadow="2"
     inkscape:window-width="1920"
     inkscape:window-height="1017"
     id="namedview44"
     showgrid="false"
     inkscape:zoom="16.54"
     inkscape:cx="14.691657"
     inkscape:cy="29.836759"
     inkscape:window-x="-8"
     inkscape:window-y="-8"
     inkscape:window-maximized="1"
     inkscape:current-layer="svg42" />
  <path
     fill-rule="evenodd"
     clip-rule="evenodd"
     d="M34.6716 2.00765C31.6705 0.66922 28.446 0 24.998 0C21.55 0 18.2936 0.66922 15.2287 2.00765C12.2276 3.28235 9.57778 5.06692 7.27911 7.36138C5.0443 9.5921 3.25645 12.2371 1.91555 15.2964C0.638517 18.3556 0 21.6061 0 25.0478C0 28.4895 0.638517 31.74 1.91555 34.7992C3.25645 37.7948 5.0443 40.4398 7.27911 42.7342C9.37151 44.7648 11.7549 46.4256 14.4293 47.7169C18.0959 49.3365 21.2711 50 24.998 50C28.446 50 31.6705 49.3626 34.6716 48.0879C37.7364 46.7495 40.3863 44.9649 42.6211 42.7342C44.9198 40.4398 46.7076 37.7948 47.9846 34.7992C49.3256 31.74 49.996 28.4895 49.996 25.0478C49.996 21.6061 49.3256 18.3556 47.9846 15.2964C46.7076 12.2371 44.9198 9.5921 42.6211 7.36138C40.3863 5.06692 37.7364 3.28235 34.6716 2.00765ZM20.7904 44.6191C22.1416 44.8921 23.5442 45.0287 24.998 45.0287C27.7436 45.0287 30.3296 44.5188 32.756 43.499C35.1824 42.4155 37.2895 40.9815 39.0773 39.1969C40.929 37.3486 42.3657 35.2135 43.3873 32.7916C44.4728 30.3697 45.0155 27.7884 45.0155 25.0478C45.0155 22.3072 44.4728 19.7259 43.3873 17.304C43.0686 16.5286 42.7095 15.7872 42.31 15.08H37.3525C35.145 15.0635 32.9584 15.508 30.9332 16.3849C28.9784 17.2345 27.1965 18.4351 25.6762 19.9271C24.1546 21.422 22.9398 23.1987 22.0997 25.1579C21.2225 27.1961 20.7764 29.3946 20.7904 31.6129L20.7904 31.6191L20.7904 44.6191ZM36.366 8.65026C35.2535 7.88877 34.0502 7.23607 32.756 6.69216C30.3296 5.60867 27.7436 5.06692 24.998 5.06692C22.1885 5.06692 19.5706 5.60867 17.1442 6.69216C14.7179 7.71192 12.6107 9.11408 10.8229 10.8987C9.03504 12.6832 7.59837 14.8184 6.51289 17.304C5.49126 19.7259 4.98045 22.3072 4.98045 25.0478C4.98045 27.7884 5.49126 30.3697 6.51289 32.7916C7.59837 35.2135 9.03504 37.3486 10.8229 39.1969C11.9075 40.2796 13.1096 41.2332 14.4293 42.0578V31.6629C14.4155 28.5818 15.0328 25.5303 16.2432 22.6959C17.3938 19.9566 19.0633 17.4647 21.1601 15.3569L21.164 15.353C23.2507 13.2786 25.7097 11.6144 28.4128 10.4473L28.4148 10.4465C30.9351 9.36505 33.6305 8.75718 36.366 8.65026Z"
     fill="#FAFAFA"
     id="path40" />
  <g
     style="fill:none"
     id="g151"
     transform="matrix(1.0574365,0,0,1.0574365,4.0628778,3.7001209)">
    <path
       d="M 40,20 C 40,30.9957 31.0913,40 19.9936,40 8.89596,40 0,31.0446 0,20 0,8.95541 8.90868,0 19.9936,0 31.0786,0 40,8.95541 40,20 Z"
       fill="#c13d1c"
       id="path140" />
  </g>
  <g
     style="fill:none"
     id="g176">
    <path
       fill-rule="evenodd"
       clip-rule="evenodd"
       d="M 34.6716,2.00765 C 31.6705,0.66922 28.446,0 24.998,0 21.55,0 18.2936,0.66922 15.2287,2.00765 12.2276,3.28235 9.57778,5.06692 7.27911,7.36138 5.0443,9.5921 3.25645,12.2371 1.91555,15.2964 0.638517,18.3556 0,21.6061 0,25.0478 c 0,3.4417 0.638517,6.6922 1.91555,9.7514 1.3409,2.9956 3.12875,5.6406 5.36356,7.935 2.0924,2.0306 4.47579,3.6914 7.15019,4.9827 C 18.0959,49.3365 21.2711,50 24.998,50 c 3.448,0 6.6725,-0.6374 9.6736,-1.9121 3.0648,-1.3384 5.7147,-3.123 7.9495,-5.3537 2.2987,-2.2944 4.0865,-4.9394 5.3635,-7.935 1.341,-3.0592 2.0114,-6.3097 2.0114,-9.7514 0,-3.4417 -0.6704,-6.6922 -2.0114,-9.7514 C 46.7076,12.2371 44.9198,9.5921 42.6211,7.36138 40.3863,5.06692 37.7364,3.28235 34.6716,2.00765 Z M 20.7904,44.6191 c 1.3512,0.273 2.7538,0.4096 4.2076,0.4096 2.7456,0 5.3316,-0.5099 7.758,-1.5297 2.4264,-1.0835 4.5335,-2.5175 6.3213,-4.3021 1.8517,-1.8483 3.2884,-3.9834 4.31,-6.4053 1.0855,-2.4219 1.6282,-5.0032 1.6282,-7.7438 0,-2.7406 -0.5427,-5.3219 -1.6282,-7.7438 C 43.0686,16.5286 42.7095,15.7872 42.31,15.08 h -4.9575 c -2.2075,-0.0165 -4.3941,0.428 -6.4193,1.3049 -1.9548,0.8496 -3.7367,2.0502 -5.257,3.5422 -1.5216,1.4949 -2.7364,3.2716 -3.5765,5.2308 -0.8772,2.0382 -1.3233,4.2367 -1.3093,6.455 v 0.0062 z M 36.366,8.65026 C 35.2535,7.88877 34.0502,7.23607 32.756,6.69216 30.3296,5.60867 27.7436,5.06692 24.998,5.06692 c -2.8095,0 -5.4274,0.54175 -7.8538,1.62524 -2.4263,1.01976 -4.5335,2.42192 -6.3213,4.20654 -1.78786,1.7845 -3.22453,3.9197 -4.31001,6.4053 -1.02163,2.4219 -1.53244,5.0032 -1.53244,7.7438 0,2.7406 0.51081,5.3219 1.53244,7.7438 1.08548,2.4219 2.52215,4.557 4.31001,6.4053 1.0846,1.0827 2.2867,2.0363 3.6064,2.8609 V 31.6629 c -0.0138,-3.0811 0.6035,-6.1326 1.8139,-8.967 1.1506,-2.7393 2.8201,-5.2312 4.9169,-7.339 L 21.164,15.353 c 2.0867,-2.0744 4.5457,-3.7386 7.2488,-4.9057 l 0.002,-8e-4 C 30.9351,9.36505 33.6305,8.75718 36.366,8.65026 Z"
       fill="#fafafa"
       id="path165" />
  </g>
</svg>
