<svg width="86" height="77" viewBox="0 0 86 77" fill="none" xmlns="http://www.w3.org/2000/svg">
<path fill-rule="evenodd" clip-rule="evenodd" d="M47.0333 14.2649C47.0333 14.2649 26.6365 31.7566 18.4904 38.8271L29.4904 57.8796C41.8361 54.3632 66.0333 47.1738 66.0333 47.1738L47.0333 14.2649ZM67.0333 48.9059L19.3903 62.8853C17.1266 63.4608 14.6207 62.2463 13.5016 60.1826L8.00157 50.6563C6.88358 48.5872 7.03158 46.05 8.74993 44.4561C12.3224 41.3815 15.9137 38.2577 19.5194 35.1213L19.5194 35.1212C28.2937 27.489 37.153 19.7828 46.0333 12.5328C45.6305 11.2251 46.3949 10.0147 47.6314 9.30078C49.0679 8.47144 50.901 8.96398 51.7295 10.3989L71.7295 45.0399C72.5579 46.4748 72.0679 48.3086 70.6314 49.1379C69.4697 49.8087 67.9734 49.7632 67.0333 48.9059ZM61.0449 14.261C60.2638 13.48 60.2638 12.2136 61.0449 11.4326L63.8733 8.60415C64.6543 7.8231 65.9207 7.8231 66.7017 8.60415C67.4828 9.38519 67.4828 10.6515 66.7017 11.4326L63.8733 14.261C63.0922 15.0421 61.8259 15.042 61.0449 14.261ZM73.4591 32.9346C72.3921 33.2205 71.2955 32.5873 71.0096 31.5204C70.7237 30.4535 71.3569 29.3568 72.4238 29.0709L76.2875 28.0356C77.3544 27.7498 78.4511 28.3829 78.737 29.4499C79.0229 30.5168 78.3897 31.6135 77.3228 31.8994L73.4591 32.9346ZM65.9092 22.9589C66.4615 23.9155 67.6847 24.2432 68.6413 23.6909L72.1054 21.6909C73.062 21.1386 73.3897 19.9155 72.8374 18.9589C72.2851 18.0023 71.062 17.6745 70.1054 18.2268L66.6413 20.2268C65.6847 20.7791 65.3569 22.0023 65.9092 22.9589ZM30.0251 66.8509C28.9633 67.1554 27.8557 66.5415 27.5513 65.4797C27.2468 64.4179 27.8607 63.3104 28.9225 63.0059L40.4577 59.6983C41.5194 59.3938 42.627 60.0077 42.9315 61.0695C43.2359 62.1313 42.622 63.2388 41.5602 63.5433L30.0251 66.8509Z" fill="#FAFAFA"/>
</svg>
