<svg width="51" height="89" viewBox="0 0 51 89" fill="none" xmlns="http://www.w3.org/2000/svg">
<path d="M47.8823 37.7592C49.3647 37.7592 50.5999 38.9885 50.5999 40.4637C50.5999 47.1022 48.0058 53.3718 43.3117 58.0433C39.0682 62.0552 33.8226 64.5257 28.2007 65.1434L28.2 83.1956H39.5505C40.9957 83.1956 42.2 84.4473 42.2 85.9493C42.2 87.5765 40.9957 88.703 39.5505 88.703H11.2494C9.80425 88.703 8.59995 87.4513 8.59995 85.9493C8.59995 84.4473 9.80425 83.1956 11.2494 83.1956H22.6L22.5999 65.1693C16.8882 64.5977 11.5785 62.1139 7.48819 58.0433C2.79407 53.3718 0.199951 47.1022 0.199951 40.4637C0.199951 38.9885 1.43525 37.7592 2.9176 37.7592C4.39995 37.7592 5.63525 38.9885 5.63525 40.4637C5.63525 45.627 7.73524 50.5443 11.4411 54.2323C15.147 57.9204 20.0882 60.0102 25.2764 60.0102H25.5235C30.7117 60.0102 35.6529 57.9204 39.3588 54.2323C43.0647 50.5443 45.1647 45.627 45.1647 40.4637C45.1647 38.9885 46.3999 37.7592 47.8823 37.7592ZM25.4 0.583984C33.9784 0.583984 40.5873 7.41779 40.7949 15.345L40.7999 15.7294V39.1361C40.7999 47.5007 33.9051 54.2815 25.4 54.2815C17.0298 54.2815 10.2192 47.7142 10.0051 39.5331L9.99995 39.1361V15.7294C9.99995 7.64002 16.6831 0.583984 25.4 0.583984ZM25.4 3.3377C18.4029 3.3377 12.996 8.91428 12.8052 15.3761L12.8 15.7294V26.7443H38V15.7294C38 9.355 32.9084 3.75171 26.1568 3.3596L25.78 3.34321L25.4 3.3377Z" fill="#FAFAFA"/>
</svg>
