<svg width="74" height="78" viewBox="0 0 74 78" fill="none" xmlns="http://www.w3.org/2000/svg">
<path fill-rule="evenodd" clip-rule="evenodd" d="M73.4001 2.59768V2.34985C73.4051 2.25812 73.4051 2.1662 73.4001 2.07447C73.3039 1.72152 73.1321 1.3929 72.8961 1.11067L72.5601 0.752689L72.0841 0.449781L71.6081 0.25702H71.0481L70.6001 0.0917969H70.3481H70.0961L25.2961 8.35295H25.0161L24.4841 8.57325L24.0361 8.84862L23.6721 9.20661C23.3312 9.61581 23.1173 10.1129 23.0561 10.6385C23.023 10.7926 23.0043 10.9493 23.0001 11.1067V52.4125C20.5768 50.625 17.6293 49.6587 14.6001 49.6587C11.8312 49.6587 9.12441 50.4663 6.82212 51.9792C4.51983 53.4921 2.72542 55.6424 1.66579 58.1583C0.606164 60.6742 0.328917 63.4426 0.86911 66.1134C1.4093 68.7843 2.74267 71.2376 4.70061 73.1632C6.65854 75.0888 9.1531 76.4001 11.8688 76.9314C14.5846 77.4626 17.3995 77.19 19.9577 76.1479C22.5158 75.1057 24.7023 73.341 26.2407 71.0768C27.779 68.8125 28.6001 66.1505 28.6001 63.4273V21.6534L67.8001 14.4387V44.1513C65.3768 42.3638 62.4293 41.3976 59.4001 41.3976C56.6312 41.3976 53.9244 42.2051 51.6221 43.718C49.3198 45.2309 47.5254 47.3813 46.4658 49.8972C45.4062 52.413 45.1289 55.1814 45.6691 57.8523C46.2093 60.5231 47.5427 62.9765 49.5006 64.902C51.4585 66.8276 53.9531 68.1389 56.6688 68.6702C59.3846 69.2015 62.1995 68.9288 64.7577 67.8867C67.3158 66.8446 69.5023 65.0798 71.0407 62.8156C72.579 60.5514 73.4001 57.8893 73.4001 55.1662V2.84552C73.4042 2.76295 73.4042 2.68024 73.4001 2.59768ZM23.0001 63.4273C23.0001 67.9898 19.2393 71.6885 14.6001 71.6885C9.96091 71.6885 6.2001 67.9898 6.2001 63.4273C6.2001 58.8648 9.96091 55.1662 14.6001 55.1662C19.2393 55.1662 23.0001 58.8648 23.0001 63.4273ZM59.4001 63.4273C64.0393 63.4273 67.8001 59.7287 67.8001 55.1662C67.8001 50.6037 64.0393 46.905 59.4001 46.905C54.7609 46.905 51.0001 50.6037 51.0001 55.1662C51.0001 59.7287 54.7609 63.4273 59.4001 63.4273Z" fill="#FAFAFA"/>
</svg>
