<svg width="115" height="83" viewBox="0 0 115 83" fill="none" xmlns="http://www.w3.org/2000/svg">
<path d="M50.9635 51.2318C58.7516 51.2318 65.0652 57.441 65.0652 65.1005V77.442C65.0652 80.4837 62.558 82.9495 59.4652 82.9495H6.2001C3.1073 82.9495 0.600098 80.4837 0.600098 77.442V66.4213C0.600098 58.1656 7.29718 51.4481 15.6399 51.2369L16.0449 51.2318L19.1572 53.0078C27.3309 57.6718 37.3453 57.9665 45.7879 53.7913L50.9635 51.2318ZM74.4872 48.8363L75.3965 48.849C83.2037 54.1539 93.4942 54.3012 101.455 49.2221L102.04 48.849L103.038 48.8352C109.403 48.7471 114.636 53.7508 114.726 60.0114L114.727 60.0911L114.727 66.1609C114.727 69.2026 112.22 71.6684 109.127 71.6684L72.0753 71.6679L72.0757 63.074C72.0757 58.493 70.0781 54.371 66.8927 51.5045C68.8998 49.8391 71.4927 48.8352 74.3239 48.8352L74.4872 48.8363ZM33.3914 0.337891C44.5854 0.337891 53.6562 9.26641 53.6562 20.2804C53.6562 26.1336 51.0937 33.5568 47.0083 39.2263C45.7122 41.0263 44.2604 42.6413 42.6918 43.9813C41.5314 44.9712 40.3079 45.8051 39.0307 46.4434C37.2391 47.3368 35.3481 47.8535 33.39 47.8535C31.4346 47.8535 29.5476 47.3395 27.7587 46.4461C26.4788 45.8078 25.2526 44.9725 24.0896 43.98C22.5209 42.6413 21.0705 41.025 19.7758 39.2263C15.6916 33.5568 13.1265 26.1349 13.1265 20.2804C13.1265 9.26641 22.1986 0.337891 33.3914 0.337891ZM88.6392 10.3775C94.4507 10.3775 99.5014 13.5782 102.071 18.2856L107.201 31.2563C108.208 33.8988 106.847 36.8442 104.162 37.8352C103.773 37.9786 102.336 38.087 99.8518 38.1603C97.0673 42.6439 93.0749 46.1027 88.6392 46.1027C84.1594 46.1027 80.1308 42.5729 77.3431 38.0223C74.6096 38.041 73.0486 37.9786 72.6599 37.8352C70.0584 36.8752 68.7002 34.081 69.5334 31.5049L69.6209 31.2563L74.8473 18.9932C77.2824 13.9014 82.5426 10.3775 88.6392 10.3775ZM21.284 11.3188C21.284 11.3188 14.0303 14.9188 15.8246 23.0371C16.5001 28.3538 19.1352 34.5414 22.901 38.9449C23.2582 39.3638 23.6276 39.7616 24.005 40.1448C26.7286 42.9135 29.9425 44.7307 33.39 44.7307C36.8389 44.7307 40.0554 42.9148 42.7791 40.1448C43.1538 39.7629 43.5204 39.3625 43.8763 38.9475C47.3977 34.8295 49.9307 29.156 50.7996 24.0878C50.8063 23.9979 51.2415 15.8505 45.2194 16.3024C45.2194 16.3024 24.3098 20.3861 21.284 11.3188ZM79.5373 18.6327L79.3473 18.8039C78.6227 19.4914 74.7792 22.1918 75.4322 27.4436C76.3384 34.5605 81.9053 43.7534 88.6379 43.7534C95.0165 43.7534 100.346 35.509 101.664 28.591C101.919 24.4 100.638 22.3256 97.8206 22.3677L97.5322 22.3809C97.5322 22.3809 81.8131 25.4494 79.5373 18.6327Z" fill="#FAFAFA"/>
</svg>
