<svg width="64" height="64" viewBox="0 0 64 64" fill="none" xmlns="http://www.w3.org/2000/svg">
<path fill-rule="evenodd" clip-rule="evenodd" d="M23.7715 13.1713C24.691 14.0847 24.7902 15.6208 23.7709 16.6327C23.7792 16.641 21.34 19.0591 21.34 19.0591L5.39896 3.14763L7.82986 0.721238C8.79207 -0.23033 10.3283 -0.250257 11.2977 0.720686C11.2971 0.715704 23.7715 13.1713 23.7715 13.1713ZM2.20863 6.33003C-0.0934634 9.21906 -5.2417 23.011 16.8342 45.6073C40.0797 69.381 55.0836 64.2938 57.6663 61.6306L42.1162 46.1094C39.9461 48.2533 37.1482 46.3319 31.7704 41.9792C28.2238 39.0681 24.1354 35.1788 20.5827 30.8123C18.1042 27.7185 15.9036 24.4879 18.1763 22.2139L2.20863 6.33003ZM63.2873 56.0761C64.2911 55.0487 64.193 53.5137 63.2596 52.5865C63.2596 52.5865 51.148 40.4929 51.1496 40.499C50.1802 39.5269 48.6435 39.5463 47.6801 40.4979L45.2492 42.9243L60.8564 58.5025C60.8564 58.5025 63.2812 56.0701 63.2873 56.0761Z" fill="#FAFAFA"/>
</svg>
