<svg width="73" height="73" viewBox="0 0 73 73" fill="none" xmlns="http://www.w3.org/2000/svg">
<path d="M56.2 15.9912C58.6274 14.7346 61.1038 13.6096 63.2 11.7807C69.3107 17.6151 72.6999 24.7741 73 33.8903H59.119C59.0012 27.0534 58.1472 21.2995 56.2 15.9912ZM21.2 17.368C25.1467 19.1021 29.4386 19.9795 33.8 20.1217V33.8903H18.4C18.5133 27.382 19.4194 22.3817 21.2 17.368ZM33.8 0.845703V15.9912C29.7176 15.8478 26.2911 14.8699 22.6 13.2374C25.4386 6.46941 29.0741 1.45985 33.8 0.845703ZM21.2 55.9528C25.1467 54.2187 29.4386 53.2455 33.8 53.1033V39.3978H18.4C18.5133 45.9061 19.4194 50.9391 21.2 55.9528ZM50.6 60.0507C46.9088 58.4182 43.4823 57.4403 39.4 57.2969V72.4424C44.1258 71.8283 47.7613 66.8187 50.6 60.0507ZM53.4 11.7807C55.5173 10.6687 57.8042 9.30828 59.6515 7.72776C55.6992 4.44027 50.9766 2.07512 45.8017 0.947308C48.9182 3.22778 51.346 6.99169 53.4 11.7807ZM39.4 0.845703V15.9912C43.4823 15.8489 46.9088 14.871 50.6 13.2374C47.7602 6.46941 44.1258 1.45985 39.4 0.845703ZM27.3993 0.947308C22.2244 2.07512 17.5019 4.44027 13.5495 7.72776C15.3968 9.30828 17.3929 10.6687 19.5114 11.7807C21.5642 6.99169 24.2817 3.22778 27.3993 0.947308ZM17 15.9912C14.5725 14.7346 12.095 13.6895 9.99995 11.8606C3.8892 17.695 0.500043 24.7741 0.199951 33.8903H14.0809C14.1987 27.0534 15.0527 21.2995 17 15.9912ZM33.8 57.2969V72.4424C29.0741 71.8283 25.4397 66.8176 22.6 60.0507C26.2911 58.4171 29.7176 57.4392 33.8 57.2969ZM52 17.368C53.7805 22.3817 54.6866 27.382 54.8 33.8903H39.4V20.1217C43.7613 19.9795 48.0532 19.1021 52 17.368ZM55.877 56.8954C58.3044 58.1519 60.5906 59.7076 62.6857 61.5365C68.7964 55.7021 72.6999 48.514 73 39.3978H59.119C59.0012 46.2347 57.8242 51.5871 55.877 56.8954ZM14.0809 39.3978H0.199951C0.500043 48.514 4.40346 55.7021 10.5142 61.5365C12.6104 59.7076 14.8955 58.1519 17.323 56.8954C15.3757 51.5871 14.1987 46.2347 14.0809 39.3978ZM19.5103 61.5074C17.3929 62.6194 15.3957 63.9798 13.5484 65.5603C17.5007 68.8478 22.2233 71.213 27.3982 72.3408C24.2817 70.0603 21.5642 66.2964 19.5103 61.5074ZM54.8 39.3978H39.4V53.1033C43.7613 53.2455 48.0532 54.186 52 55.9201C53.7805 50.9064 54.6866 45.9061 54.8 39.3978ZM45.8006 72.3408C50.9755 71.213 55.6981 68.8478 59.6504 65.5603C57.8031 63.9798 55.807 62.6194 53.6885 61.5074C51.6357 66.2964 48.9182 70.0603 45.8006 72.3408Z" fill="#FAFAFA"/>
</svg>
