<svg width="150" height="18" viewBox="0 0 150 18" fill="none" xmlns="http://www.w3.org/2000/svg">
<path d="M2.32359 17.2689H0.367188V11.4227C0.367188 10.5809 0.534012 9.78578 0.867661 9.03747C1.20131 8.28916 1.65629 7.64219 2.23259 7.09655C2.80889 6.5509 3.47619 6.12219 4.23449 5.81039C5.00795 5.48301 5.83449 5.31931 6.71411 5.31931V7.33039C6.10747 7.33039 5.53875 7.43952 5.00795 7.65778C4.47714 7.86044 4.007 8.14885 3.59752 8.52301C3.20321 8.89716 2.89231 9.33367 2.66482 9.83255C2.43733 10.3314 2.32359 10.8615 2.32359 11.4227V17.2689Z" fill="#FAFAFA"/>
<path d="M17.036 10.4639C16.9147 10.0274 16.7327 9.62208 16.4901 9.24793C16.2626 8.85819 15.982 8.5308 15.6483 8.26578C15.3147 7.98516 14.9356 7.76691 14.5109 7.61101C14.1014 7.45511 13.6616 7.37716 13.1915 7.37716C12.7213 7.37716 12.2739 7.45511 11.8493 7.61101C11.4398 7.76691 11.0683 7.98516 10.7346 8.26578C10.401 8.5308 10.1128 8.85819 9.87015 9.24793C9.6275 9.62208 9.45309 10.0274 9.34693 10.4639H17.036ZM13.1915 17.5495C12.3725 17.5495 11.5991 17.3936 10.8711 17.0818C10.1583 16.7544 9.52892 16.3179 8.98295 15.7722C8.45214 15.211 8.0275 14.564 7.70901 13.8313C7.40569 13.0986 7.25404 12.3113 7.25404 11.4695C7.25404 10.6276 7.40569 9.83255 7.70901 9.08424C8.0275 8.33593 8.45214 7.68896 8.98295 7.14331C9.52892 6.59767 10.1583 6.16896 10.8711 5.85716C11.5991 5.52978 12.3725 5.36608 13.1915 5.36608C14.0104 5.36608 14.7763 5.52978 15.4891 5.85716C16.2171 6.16896 16.8465 6.59767 17.3773 7.14331C17.9081 7.68896 18.3251 8.33593 18.6284 9.08424C18.9469 9.83255 19.1062 10.6276 19.1062 11.4695C19.1062 11.5786 19.1062 11.6955 19.1062 11.8202C19.1062 11.945 19.091 12.1554 19.0607 12.4516H9.34693C9.45309 12.9037 9.6275 13.3169 9.87015 13.691C10.1128 14.0652 10.401 14.3925 10.7346 14.6732C11.0683 14.9538 11.4398 15.172 11.8493 15.3279C12.2739 15.4838 12.7213 15.5618 13.1915 15.5618C13.5555 15.5618 13.9194 15.4682 14.2834 15.2812C14.6474 15.0785 14.9962 14.8135 15.3299 14.4861L16.6948 15.8892C16.1943 16.388 15.6408 16.7934 15.0341 17.1052C14.4427 17.4014 13.8284 17.5495 13.1915 17.5495Z" fill="#FAFAFA"/>
<path d="M26.9207 17.4325C26.1018 17.4325 25.3359 17.2766 24.6231 16.9649C23.9103 16.6375 23.2809 16.201 22.735 15.6553C22.2042 15.1097 21.7795 14.4705 21.461 13.7378C21.1577 12.9895 21.0061 12.1944 21.0061 11.3525C21.0061 10.5107 21.1577 9.72342 21.461 8.9907C21.7795 8.24239 22.2042 7.59542 22.735 7.04978C23.2809 6.48855 23.9103 6.05203 24.6231 5.74024C25.3359 5.41285 26.1018 5.24916 26.9207 5.24916C27.5577 5.24916 28.1795 5.40506 28.7861 5.71685C29.3928 6.01306 29.9463 6.41839 30.4468 6.93285L29.0819 8.33593C28.7482 8.00855 28.3994 7.75132 28.0354 7.56424C27.6715 7.36157 27.2999 7.26024 26.9207 7.26024C26.3748 7.26024 25.8591 7.36937 25.3738 7.58762C24.8885 7.79029 24.4639 8.0787 24.0999 8.45286C23.7511 8.82701 23.4705 9.26352 23.2582 9.76239C23.0459 10.2613 22.9397 10.7913 22.9397 11.3525C22.9397 11.9138 23.0459 12.4438 23.2582 12.9427C23.4705 13.4416 23.7511 13.8781 24.0999 14.2522C24.4639 14.6108 24.8885 14.8992 25.3738 15.1175C25.8591 15.3357 26.3748 15.4449 26.9207 15.4449C27.2999 15.4449 27.6715 15.3513 28.0354 15.1642C28.3994 14.9772 28.7482 14.7121 29.0819 14.3692L30.4468 15.7722C29.9463 16.2867 29.3928 16.692 28.7861 16.9882C28.1795 17.2844 27.5577 17.4325 26.9207 17.4325Z" fill="#FAFAFA"/>
<path d="M36.6409 5.31931C37.3688 5.31931 38.0361 5.48301 38.6428 5.81039C39.2646 6.13778 39.7878 6.58208 40.2124 7.14331C40.6523 6.58208 41.1755 6.13778 41.7821 5.81039C42.3888 5.48301 43.0636 5.31931 43.8068 5.31931C44.4286 5.31931 45.0124 5.44403 45.5584 5.69347C46.1196 5.9429 46.6049 6.27808 47.0143 6.69901C47.4238 7.11993 47.7499 7.6188 47.9925 8.19562C48.2352 8.75685 48.3565 9.35706 48.3565 9.99624V17.2689H46.4001V9.99624C46.4001 9.62209 46.3319 9.27911 46.1954 8.96732C46.0589 8.63993 45.8693 8.35931 45.6267 8.12547C45.3992 7.87603 45.1262 7.68116 44.8077 7.54085C44.5044 7.40055 44.1707 7.33039 43.8068 7.33039C43.4428 7.33039 43.1015 7.40055 42.7831 7.54085C42.4646 7.68116 42.184 7.87603 41.9414 8.12547C41.7139 8.35931 41.5319 8.63993 41.3954 8.96732C41.2589 9.27911 41.1906 9.62209 41.1906 9.99624V17.2689H39.257V9.99624C39.257 9.62209 39.1888 9.27911 39.0523 8.96732C38.9158 8.63993 38.7262 8.35931 38.4835 8.12547C38.2409 7.87603 37.9603 7.68116 37.6418 7.54085C37.3385 7.40055 37.0049 7.33039 36.6409 7.33039C36.2769 7.33039 35.9357 7.40055 35.6172 7.54085C35.2987 7.68116 35.0181 7.87603 34.7755 8.12547C34.548 8.35931 34.366 8.63993 34.2295 8.96732C34.093 9.27911 34.0248 9.62209 34.0248 9.99624V17.2689H32.0911V9.99624C32.0911 9.35706 32.2124 8.75685 32.4551 8.19562C32.6978 7.6188 33.0238 7.11993 33.4333 6.69901C33.8428 6.27808 34.3205 5.9429 34.8665 5.69347C35.4276 5.44403 36.0191 5.31931 36.6409 5.31931Z" fill="#FAFAFA"/>
<path d="M56.4887 5.31931C57.3077 5.31931 58.0735 5.48301 58.7863 5.81039C59.5143 6.12219 60.1437 6.5509 60.6745 7.09655C61.2204 7.64219 61.6451 8.28916 61.9484 9.03747C62.2669 9.78578 62.4261 10.5809 62.4261 11.4227C62.4261 12.2645 62.2669 13.0596 61.9484 13.8079C61.6451 14.5406 61.2204 15.1798 60.6745 15.7255C60.1437 16.2711 59.5143 16.7076 58.7863 17.035C58.0735 17.3468 57.3077 17.5027 56.4887 17.5027C55.6697 17.5027 54.9039 17.3468 54.1911 17.035C53.4783 16.7076 52.8489 16.2711 52.3029 15.7255C51.7721 15.1798 51.3475 14.5406 51.029 13.8079C50.7257 13.0596 50.574 12.2645 50.574 11.4227C50.574 10.5809 50.7257 9.78578 51.029 9.03747C51.3475 8.28916 51.7721 7.64219 52.3029 7.09655C52.8489 6.5509 53.4783 6.12219 54.1911 5.81039C54.9039 5.48301 55.6697 5.31931 56.4887 5.31931ZM56.4887 7.33039C55.9427 7.33039 55.4271 7.43952 54.9418 7.65778C54.4565 7.86044 54.0318 8.14885 53.6678 8.52301C53.3039 8.89716 53.0157 9.33367 52.8034 9.83255C52.6062 10.3314 52.5077 10.8615 52.5077 11.4227C52.5077 11.9839 52.6062 12.514 52.8034 13.0129C53.0157 13.5117 53.3039 13.9482 53.6678 14.3224C54.0318 14.681 54.4565 14.9694 54.9418 15.1876C55.4271 15.4059 55.9427 15.515 56.4887 15.515C57.0347 15.515 57.5503 15.4059 58.0356 15.1876C58.5209 14.9694 58.9456 14.681 59.3096 14.3224C59.6735 13.9482 59.9541 13.5117 60.1513 13.0129C60.3636 12.514 60.4697 11.9839 60.4697 11.4227C60.4697 10.8615 60.3636 10.3314 60.1513 9.83255C59.9541 9.33367 59.6735 8.89716 59.3096 8.52301C58.9456 8.14885 58.5209 7.86044 58.0356 7.65778C57.5503 7.43952 57.0347 7.33039 56.4887 7.33039Z" fill="#FAFAFA"/>
<path d="M64.572 2.77039H66.5284V5.62331H70.5094V7.61101H66.5284V14.1821C66.5284 14.5251 66.6421 14.8213 66.8696 15.0707C67.1123 15.3045 67.408 15.4215 67.7568 15.4215C68.1056 15.4215 68.3938 15.2578 68.6213 14.9304C68.8639 14.603 68.9853 14.2055 68.9853 13.7378H70.9189C70.9189 14.2522 70.8355 14.7355 70.6687 15.1876C70.5018 15.6241 70.2744 16.0139 69.9862 16.3569C69.7132 16.6842 69.3796 16.9493 68.9853 17.1519C68.6061 17.339 68.1966 17.4325 67.7568 17.4325C67.317 17.4325 66.8999 17.3468 66.5056 17.1753C66.1265 17.0038 65.7928 16.77 65.5047 16.4738C65.2165 16.1776 64.9891 15.8346 64.8222 15.4449C64.6554 15.0551 64.572 14.6342 64.572 14.1821V2.77039Z" fill="#FAFAFA"/>
<path d="M81.6391 10.4639C81.5178 10.0274 81.3358 9.62208 81.0931 9.24793C80.8657 8.85819 80.5851 8.5308 80.2514 8.26578C79.9178 7.98516 79.5386 7.76691 79.114 7.61101C78.7045 7.45511 78.2647 7.37716 77.7946 7.37716C77.3244 7.37716 76.877 7.45511 76.4524 7.61101C76.0429 7.76691 75.6713 7.98516 75.3377 8.26578C75.004 8.5308 74.7159 8.85819 74.4732 9.24793C74.2306 9.62208 74.0562 10.0274 73.95 10.4639H81.6391ZM77.7946 17.5495C76.9756 17.5495 76.2021 17.3936 75.4742 17.0818C74.7614 16.7544 74.132 16.3179 73.586 15.7722C73.0552 15.211 72.6306 14.564 72.3121 13.8313C72.0088 13.0986 71.8571 12.3113 71.8571 11.4695C71.8571 10.6276 72.0088 9.83255 72.3121 9.08424C72.6306 8.33593 73.0552 7.68896 73.586 7.14331C74.132 6.59767 74.7614 6.16896 75.4742 5.85716C76.2021 5.52978 76.9756 5.36608 77.7946 5.36608C78.6135 5.36608 79.3794 5.52978 80.0922 5.85716C80.8202 6.16896 81.4495 6.59767 81.9803 7.14331C82.5112 7.68896 82.9282 8.33593 83.2315 9.08424C83.55 9.83255 83.7093 10.6276 83.7093 11.4695C83.7093 11.5786 83.7093 11.6955 83.7093 11.8202C83.7093 11.945 83.6941 12.1554 83.6638 12.4516H73.95C74.0562 12.9037 74.2306 13.3169 74.4732 13.691C74.7159 14.0652 75.004 14.3925 75.3377 14.6732C75.6713 14.9538 76.0429 15.172 76.4524 15.3279C76.877 15.4838 77.3244 15.5618 77.7946 15.5618C78.1585 15.5618 78.5225 15.4682 78.8865 15.2812C79.2505 15.0785 79.5993 14.8135 79.9329 14.4861L81.2979 15.8892C80.7974 16.388 80.2439 16.7934 79.6372 17.1052C79.0457 17.4014 78.4315 17.5495 77.7946 17.5495Z" fill="#FAFAFA"/>
<path d="M93.9697 12.2879C93.545 12.2879 93.1431 12.21 92.764 12.0541C92.4 11.8982 92.0739 11.6877 91.7858 11.4227C91.4976 11.1421 91.2626 10.8147 91.0806 10.4405C90.9137 10.0664 90.8228 9.66106 90.8076 9.22455C90.7924 9.13101 90.7848 9.01408 90.7848 8.87378C90.7848 8.71788 90.7924 8.59316 90.8076 8.49962C90.8228 8.0787 90.9137 7.68116 91.0806 7.30701C91.2626 6.93285 91.4976 6.60547 91.7858 6.32485C92.0739 6.04424 92.4 5.82598 92.764 5.67008C93.1431 5.51419 93.545 5.43624 93.9697 5.43624H98.3375V7.44732H93.9697C93.6512 7.44732 93.3706 7.56424 93.128 7.79808C92.9005 8.01634 92.7716 8.29696 92.7412 8.63993C92.7109 8.79583 92.7109 8.95952 92.7412 9.13101C92.7716 9.45839 92.9005 9.73901 93.128 9.97285C93.3706 10.1911 93.6512 10.3002 93.9697 10.3002H95.5393C95.964 10.3002 96.3659 10.386 96.745 10.5575C97.1242 10.7134 97.4503 10.9316 97.7232 11.2122C98.0114 11.4929 98.2389 11.8202 98.4057 12.1944C98.5877 12.5685 98.6863 12.9739 98.7014 13.4104V14.0652C98.7014 14.5173 98.6104 14.9382 98.4284 15.3279C98.2616 15.7021 98.0341 16.0373 97.746 16.3335C97.473 16.6297 97.1394 16.8635 96.745 17.035C96.3659 17.1909 95.9564 17.2689 95.5166 17.2689H91.0351V15.2812H95.5166C95.8199 15.2812 96.0777 15.1798 96.2901 14.9772C96.5175 14.7745 96.6692 14.5329 96.745 14.2522V14.1587C96.745 14.1275 96.745 14.1041 96.745 14.0885C96.7602 14.0574 96.7678 14.0262 96.7678 13.995V13.5507C96.7526 13.1921 96.6237 12.8959 96.3811 12.6621C96.1536 12.4126 95.8654 12.2879 95.5166 12.2879H93.9697Z" fill="#FAFAFA"/>
<path d="M100.939 2.77039H102.895V5.62331H106.876V7.61101H102.895V14.1821C102.895 14.5251 103.009 14.8213 103.237 15.0707C103.479 15.3045 103.775 15.4215 104.124 15.4215C104.473 15.4215 104.761 15.2578 104.988 14.9304C105.231 14.603 105.352 14.2055 105.352 13.7378H107.286C107.286 14.2522 107.202 14.7355 107.036 15.1876C106.869 15.6241 106.641 16.0139 106.353 16.3569C106.08 16.6842 105.747 16.9493 105.352 17.1519C104.973 17.339 104.564 17.4325 104.124 17.4325C103.684 17.4325 103.267 17.3468 102.873 17.1753C102.493 17.0038 102.16 16.77 101.872 16.4738C101.584 16.1776 101.356 15.8346 101.189 15.4449C101.022 15.0551 100.939 14.6342 100.939 14.1821V2.77039Z" fill="#FAFAFA"/>
<path d="M113.417 17.4793C112.78 17.4793 112.181 17.3546 111.62 17.1052C111.074 16.8557 110.596 16.5205 110.187 16.0996C109.777 15.6787 109.451 15.1876 109.209 14.6264C108.981 14.0496 108.867 13.4416 108.867 12.8024V5.55316H110.801V12.8024C110.801 13.1765 110.869 13.5273 111.006 13.8547C111.142 14.1821 111.324 14.4705 111.552 14.7199C111.794 14.9538 112.075 15.1409 112.393 15.2812C112.712 15.4215 113.053 15.4916 113.417 15.4916C113.781 15.4916 114.115 15.4215 114.418 15.2812C114.737 15.1409 115.009 14.9538 115.237 14.7199C115.48 14.4705 115.669 14.1821 115.806 13.8547C115.942 13.5273 116.01 13.1765 116.01 12.8024V5.55316H117.967V12.8024C117.967 13.4416 117.846 14.0496 117.603 14.6264C117.36 15.1876 117.034 15.6787 116.625 16.0996C116.215 16.5205 115.73 16.8557 115.169 17.1052C114.623 17.3546 114.039 17.4793 113.417 17.4793Z" fill="#FAFAFA"/>
<path d="M126.026 5.29593C126.799 5.29593 127.52 5.43624 128.187 5.71685C128.869 5.99747 129.476 6.37942 130.007 6.8627V0.12793H131.94V11.3993C131.94 12.2412 131.781 13.0362 131.463 13.7845C131.159 14.5173 130.742 15.1564 130.212 15.7021C129.681 16.2477 129.051 16.6842 128.323 17.0116C127.611 17.3234 126.845 17.4793 126.026 17.4793C125.207 17.4793 124.441 17.3234 123.728 17.0116C123.015 16.6842 122.386 16.2477 121.84 15.7021C121.309 15.1564 120.885 14.5173 120.566 13.7845C120.263 13.0362 120.111 12.2412 120.111 11.3993C120.111 10.5575 120.263 9.77019 120.566 9.03747C120.885 8.28916 121.309 7.64219 121.84 7.09655C122.386 6.53531 123.015 6.0988 123.728 5.78701C124.441 5.45962 125.207 5.29593 126.026 5.29593ZM126.026 7.30701C125.48 7.30701 124.964 7.41613 124.479 7.63439C123.994 7.83706 123.569 8.12547 123.205 8.49962C122.856 8.87378 122.576 9.31029 122.363 9.80916C122.151 10.308 122.045 10.8381 122.045 11.3993C122.045 11.9605 122.151 12.4906 122.363 12.9895C122.576 13.4883 122.856 13.9249 123.205 14.299C123.569 14.6576 123.994 14.946 124.479 15.1642C124.964 15.3825 125.48 15.4916 126.026 15.4916C126.572 15.4916 127.087 15.3825 127.573 15.1642C128.058 14.946 128.483 14.6576 128.847 14.299C129.211 13.9249 129.491 13.4883 129.688 12.9895C129.901 12.4906 130.007 11.9605 130.007 11.3993C130.007 10.8381 129.901 10.308 129.688 9.80916C129.491 9.31029 129.211 8.87378 128.847 8.49962C128.483 8.12547 128.058 7.83706 127.573 7.63439C127.087 7.41613 126.572 7.30701 126.026 7.30701Z" fill="#FAFAFA"/>
<path d="M134.06 5.57655H136.016V17.2689H134.06V5.57655ZM134.06 0.151314H136.016V2.86393H134.06V0.151314Z" fill="#FAFAFA"/>
<path d="M143.796 5.31931C144.615 5.31931 145.381 5.48301 146.094 5.81039C146.822 6.12219 147.451 6.5509 147.982 7.09655C148.528 7.64219 148.953 8.28916 149.256 9.03747C149.574 9.78578 149.734 10.5809 149.734 11.4227C149.734 12.2645 149.574 13.0596 149.256 13.8079C148.953 14.5406 148.528 15.1798 147.982 15.7255C147.451 16.2711 146.822 16.7076 146.094 17.035C145.381 17.3468 144.615 17.5027 143.796 17.5027C142.977 17.5027 142.211 17.3468 141.499 17.035C140.786 16.7076 140.156 16.2711 139.61 15.7255C139.08 15.1798 138.655 14.5406 138.336 13.8079C138.033 13.0596 137.881 12.2645 137.881 11.4227C137.881 10.5809 138.033 9.78578 138.336 9.03747C138.655 8.28916 139.08 7.64219 139.61 7.09655C140.156 6.5509 140.786 6.12219 141.499 5.81039C142.211 5.48301 142.977 5.31931 143.796 5.31931ZM143.796 7.33039C143.25 7.33039 142.735 7.43952 142.249 7.65778C141.764 7.86044 141.339 8.14885 140.975 8.52301C140.611 8.89716 140.323 9.33367 140.111 9.83255C139.914 10.3314 139.815 10.8615 139.815 11.4227C139.815 11.9839 139.914 12.514 140.111 13.0129C140.323 13.5117 140.611 13.9482 140.975 14.3224C141.339 14.681 141.764 14.9694 142.249 15.1876C142.735 15.4059 143.25 15.515 143.796 15.515C144.342 15.515 144.858 15.4059 145.343 15.1876C145.828 14.9694 146.253 14.681 146.617 14.3224C146.981 13.9482 147.262 13.5117 147.459 13.0129C147.671 12.514 147.777 11.9839 147.777 11.4227C147.777 10.8615 147.671 10.3314 147.459 9.83255C147.262 9.33367 146.981 8.89716 146.617 8.52301C146.253 8.14885 145.828 7.86044 145.343 7.65778C144.858 7.43952 144.342 7.33039 143.796 7.33039Z" fill="#FAFAFA"/>
</svg>
