<svg width="179" height="32" viewBox="0 0 179 32" fill="none" xmlns="http://www.w3.org/2000/svg">
<path d="M4.57192 30.7862H0.394775V18.6433C0.394775 16.8947 0.750966 15.2433 1.46335 13.689C2.17573 12.1347 3.14716 10.7909 4.37763 9.65759C5.60811 8.52425 7.03287 7.63378 8.65192 6.98616C10.3033 6.30616 12.0681 5.96616 13.9462 5.96616V10.1433C12.651 10.1433 11.4367 10.37 10.3033 10.8233C9.17002 11.2443 8.1662 11.8433 7.29192 12.6204C6.45001 13.3976 5.78621 14.3043 5.30049 15.3404C4.81478 16.3766 4.57192 17.4776 4.57192 18.6433V30.7862Z" fill="#FAFAFA"/>
<path d="M35.9847 16.6519C35.7257 15.7452 35.3371 14.9033 34.819 14.1262C34.3333 13.3166 33.7343 12.6366 33.0219 12.0862C32.3095 11.5033 31.5 11.05 30.5933 10.7262C29.719 10.4024 28.78 10.2404 27.7762 10.2404C26.7724 10.2404 25.8171 10.4024 24.9104 10.7262C24.0362 11.05 23.2428 11.5033 22.5304 12.0862C21.8181 12.6366 21.2028 13.3166 20.6847 14.1262C20.1666 14.9033 19.7943 15.7452 19.5676 16.6519H35.9847ZM27.7762 31.369C26.0276 31.369 24.3762 31.0452 22.8219 30.3976C21.3 29.7176 19.9562 28.8109 18.7904 27.6776C17.6571 26.5119 16.7504 25.1681 16.0704 23.6462C15.4228 22.1243 15.099 20.489 15.099 18.7404C15.099 16.9919 15.4228 15.3404 16.0704 13.7862C16.7504 12.2319 17.6571 10.8881 18.7904 9.75473C19.9562 8.6214 21.3 7.73092 22.8219 7.0833C24.3762 6.4033 26.0276 6.0633 27.7762 6.0633C29.5247 6.0633 31.16 6.4033 32.6819 7.0833C34.2362 7.73092 35.58 8.6214 36.7133 9.75473C37.8466 10.8881 38.7371 12.2319 39.3847 13.7862C40.0647 15.3404 40.4047 16.9919 40.4047 18.7404C40.4047 18.9671 40.4047 19.21 40.4047 19.469C40.4047 19.7281 40.3724 20.1652 40.3076 20.7804H19.5676C19.7943 21.7195 20.1666 22.5776 20.6847 23.3547C21.2028 24.1319 21.8181 24.8119 22.5304 25.3947C23.2428 25.9776 24.0362 26.4309 24.9104 26.7547C25.8171 27.0785 26.7724 27.2404 27.7762 27.2404C28.5533 27.2404 29.3304 27.0462 30.1076 26.6576C30.8847 26.2366 31.6295 25.6862 32.3419 25.0062L35.2562 27.9204C34.1876 28.9566 33.0057 29.7985 31.7104 30.4462C30.4476 31.0614 29.1362 31.369 27.7762 31.369Z" fill="#FAFAFA"/>
<path d="M57.0898 31.1262C55.3412 31.1262 53.706 30.8023 52.1841 30.1547C50.6622 29.4747 49.3184 28.5681 48.1526 27.4347C47.0193 26.3014 46.1126 24.9738 45.4326 23.4519C44.785 21.8976 44.4612 20.2462 44.4612 18.4976C44.4612 16.749 44.785 15.1138 45.4326 13.5919C46.1126 12.0376 47.0193 10.6938 48.1526 9.56045C49.3184 8.39473 50.6622 7.48806 52.1841 6.84044C53.706 6.16045 55.3412 5.82045 57.0898 5.82045C58.4498 5.82045 59.7774 6.14426 61.0726 6.79187C62.3679 7.40711 63.5498 8.24902 64.6184 9.31759L61.7041 12.2319C60.9917 11.5519 60.2469 11.0176 59.4698 10.629C58.6926 10.2081 57.8993 9.99759 57.0898 9.99759C55.9241 9.99759 54.8231 10.2243 53.7869 10.6776C52.7507 11.0985 51.8441 11.6976 51.0669 12.4747C50.3222 13.2519 49.7231 14.1585 49.2698 15.1947C48.8164 16.2309 48.5898 17.3319 48.5898 18.4976C48.5898 19.6633 48.8164 20.7643 49.2698 21.8004C49.7231 22.8366 50.3222 23.7433 51.0669 24.5204C51.8441 25.2652 52.7507 25.8643 53.7869 26.3176C54.8231 26.7709 55.9241 26.9976 57.0898 26.9976C57.8993 26.9976 58.6926 26.8033 59.4698 26.4147C60.2469 26.0262 60.9917 25.4757 61.7041 24.7633L64.6184 27.6776C63.5498 28.7462 62.3679 29.5881 61.0726 30.2033C59.7774 30.8185 58.4498 31.1262 57.0898 31.1262Z" fill="#FAFAFA"/>
<path d="M77.8434 5.96616C79.3977 5.96616 80.8225 6.30616 82.1177 6.98616C83.4453 7.66616 84.5625 8.58902 85.4692 9.75473C86.4082 8.58902 87.5254 7.66616 88.8206 6.98616C90.1158 6.30616 91.5568 5.96616 93.1434 5.96616C94.4711 5.96616 95.7177 6.22521 96.8834 6.7433C98.0815 7.2614 99.1177 7.95759 99.992 8.83187C100.866 9.70616 101.562 10.7423 102.081 11.9404C102.599 13.1062 102.858 14.3528 102.858 15.6804V30.7862H98.6806V15.6804C98.6806 14.9033 98.5349 14.1909 98.2435 13.5433C97.952 12.8633 97.5473 12.2804 97.0292 11.7947C96.5434 11.2766 95.9606 10.8719 95.2806 10.5804C94.633 10.289 93.9206 10.1433 93.1434 10.1433C92.3663 10.1433 91.6377 10.289 90.9577 10.5804C90.2777 10.8719 89.6787 11.2766 89.1606 11.7947C88.6749 12.2804 88.2863 12.8633 87.9949 13.5433C87.7034 14.1909 87.5577 14.9033 87.5577 15.6804V30.7862H83.4292V15.6804C83.4292 14.9033 83.2834 14.1909 82.992 13.5433C82.7006 12.8633 82.2958 12.2804 81.7777 11.7947C81.2596 11.2766 80.6606 10.8719 79.9806 10.5804C79.333 10.289 78.6206 10.1433 77.8434 10.1433C77.0663 10.1433 76.3377 10.289 75.6577 10.5804C74.9777 10.8719 74.3787 11.2766 73.8606 11.7947C73.3749 12.2804 72.9863 12.8633 72.6949 13.5433C72.4034 14.1909 72.2577 14.9033 72.2577 15.6804V30.7862H68.1292V15.6804C68.1292 14.3528 68.3882 13.1062 68.9063 11.9404C69.4244 10.7423 70.1206 9.70616 70.9949 8.83187C71.8692 7.95759 72.8892 7.2614 74.0549 6.7433C75.253 6.22521 76.5158 5.96616 77.8434 5.96616Z" fill="#FAFAFA"/>
<path d="M120.221 5.96616C121.969 5.96616 123.605 6.30616 125.127 6.98616C126.681 7.63378 128.025 8.52425 129.158 9.65759C130.324 10.7909 131.23 12.1347 131.878 13.689C132.558 15.2433 132.898 16.8947 132.898 18.6433C132.898 20.3919 132.558 22.0433 131.878 23.5976C131.23 25.1195 130.324 26.4471 129.158 27.5804C128.025 28.7138 126.681 29.6204 125.127 30.3004C123.605 30.9481 121.969 31.2719 120.221 31.2719C118.472 31.2719 116.837 30.9481 115.315 30.3004C113.793 29.6204 112.449 28.7138 111.284 27.5804C110.15 26.4471 109.244 25.1195 108.564 23.5976C107.916 22.0433 107.592 20.3919 107.592 18.6433C107.592 16.8947 107.916 15.2433 108.564 13.689C109.244 12.1347 110.15 10.7909 111.284 9.65759C112.449 8.52425 113.793 7.63378 115.315 6.98616C116.837 6.30616 118.472 5.96616 120.221 5.96616ZM120.221 10.1433C119.055 10.1433 117.954 10.37 116.918 10.8233C115.882 11.2443 114.975 11.8433 114.198 12.6204C113.421 13.3976 112.806 14.3043 112.352 15.3404C111.931 16.3766 111.721 17.4776 111.721 18.6433C111.721 19.809 111.931 20.91 112.352 21.9462C112.806 22.9823 113.421 23.889 114.198 24.6662C114.975 25.4109 115.882 26.01 116.918 26.4633C117.954 26.9166 119.055 27.1433 120.221 27.1433C121.387 27.1433 122.488 26.9166 123.524 26.4633C124.56 26.01 125.467 25.4109 126.244 24.6662C127.021 23.889 127.62 22.9823 128.041 21.9462C128.494 20.91 128.721 19.809 128.721 18.6433C128.721 17.4776 128.494 16.3766 128.041 15.3404C127.62 14.3043 127.021 13.3976 126.244 12.6204C125.467 11.8433 124.56 11.2443 123.524 10.8233C122.488 10.37 121.387 10.1433 120.221 10.1433Z" fill="#FAFAFA"/>
<path d="M137.48 0.671875H141.657V6.59759H150.157V10.7262H141.657V24.3747C141.657 25.0871 141.9 25.7024 142.385 26.2204C142.903 26.7062 143.535 26.949 144.28 26.949C145.024 26.949 145.64 26.609 146.125 25.929C146.643 25.249 146.903 24.4233 146.903 23.4519H151.031C151.031 24.5204 150.853 25.5243 150.497 26.4633C150.141 27.37 149.655 28.1795 149.04 28.8919C148.457 29.5719 147.744 30.1223 146.903 30.5433C146.093 30.9319 145.219 31.1262 144.28 31.1262C143.341 31.1262 142.45 30.9481 141.608 30.5919C140.799 30.2357 140.086 29.75 139.471 29.1347C138.856 28.5195 138.37 27.8071 138.014 26.9976C137.658 26.1881 137.48 25.3138 137.48 24.3747V0.671875Z" fill="#FAFAFA"/>
<path d="M173.92 16.6519C173.661 15.7452 173.272 14.9033 172.754 14.1262C172.269 13.3166 171.67 12.6366 170.957 12.0862C170.245 11.5033 169.435 11.05 168.529 10.7262C167.654 10.4024 166.715 10.2404 165.711 10.2404C164.708 10.2404 163.752 10.4024 162.846 10.7262C161.971 11.05 161.178 11.5033 160.466 12.0862C159.753 12.6366 159.138 13.3166 158.62 14.1262C158.102 14.9033 157.73 15.7452 157.503 16.6519H173.92ZM165.711 31.369C163.963 31.369 162.311 31.0452 160.757 30.3976C159.235 29.7176 157.891 28.8109 156.726 27.6776C155.592 26.5119 154.686 25.1681 154.006 23.6462C153.358 22.1243 153.034 20.489 153.034 18.7404C153.034 16.9919 153.358 15.3404 154.006 13.7862C154.686 12.2319 155.592 10.8881 156.726 9.75473C157.891 8.6214 159.235 7.73092 160.757 7.0833C162.311 6.4033 163.963 6.0633 165.711 6.0633C167.46 6.0633 169.095 6.4033 170.617 7.0833C172.171 7.73092 173.515 8.6214 174.649 9.75473C175.782 10.8881 176.672 12.2319 177.32 13.7862C178 15.3404 178.34 16.9919 178.34 18.7404C178.34 18.9671 178.34 19.21 178.34 19.469C178.34 19.7281 178.308 20.1652 178.243 20.7804H157.503C157.73 21.7195 158.102 22.5776 158.62 23.3547C159.138 24.1319 159.753 24.8119 160.466 25.3947C161.178 25.9776 161.971 26.4309 162.846 26.7547C163.752 27.0785 164.708 27.2404 165.711 27.2404C166.489 27.2404 167.266 27.0462 168.043 26.6576C168.82 26.2366 169.565 25.6862 170.277 25.0062L173.191 27.9204C172.123 28.9566 170.941 29.7985 169.646 30.4462C168.383 31.0614 167.071 31.369 165.711 31.369Z" fill="#FAFAFA"/>
</svg>
