<svg width="150" height="19" viewBox="0 0 150 19" fill="none" xmlns="http://www.w3.org/2000/svg">
<path d="M1.18846 18.2689H-0.0231934V12.4227C-0.0231934 11.5809 0.132146 10.7858 0.442826 10.0375C0.76904 9.28919 1.20399 8.64221 1.74768 8.09657C2.3069 7.53534 2.95156 7.09883 3.68166 6.78703C4.42729 6.45965 5.21952 6.29596 6.05836 6.29596V7.53534C5.3904 7.53534 4.76127 7.66785 4.17098 7.93288C3.58069 8.18231 3.0603 8.52529 2.60982 8.9618C2.17487 9.39832 1.82535 9.92057 1.56127 10.5286C1.31273 11.121 1.18846 11.7524 1.18846 12.4227V18.2689Z" fill="#FAFAFA"/>
<path d="M17.6886 11.8615C17.611 11.2535 17.4323 10.6923 17.1527 10.1778C16.8731 9.66334 16.5158 9.21124 16.0809 8.82149C15.6615 8.43175 15.1721 8.12775 14.6129 7.90949C14.0692 7.69124 13.4867 7.58211 12.8653 7.58211C12.244 7.58211 11.6537 7.69124 11.0945 7.90949C10.5352 8.12775 10.0382 8.43175 9.6032 8.82149C9.18378 9.21124 8.83427 9.66334 8.55466 10.1778C8.27505 10.6923 8.09641 11.2535 8.01874 11.8615H17.6886ZM12.8653 18.5729C12.0265 18.5729 11.2343 18.417 10.4886 18.1052C9.74301 17.7778 9.09058 17.3413 8.53136 16.7956C7.98767 16.2344 7.55272 15.5874 7.2265 14.8547C6.91582 14.1064 6.76048 13.3113 6.76048 12.4695C6.76048 11.6276 6.91582 10.8326 7.2265 10.0843C7.55272 9.33596 7.98767 8.68898 8.53136 8.14334C9.09058 7.58211 9.74301 7.1456 10.4886 6.8338C11.2343 6.50642 12.0265 6.34272 12.8653 6.34272C13.7042 6.34272 14.4886 6.50642 15.2187 6.8338C15.9644 7.1456 16.609 7.58211 17.1527 8.14334C17.7119 8.68898 18.1469 9.33596 18.4576 10.0843C18.7838 10.8326 18.9469 11.6276 18.9469 12.4695C18.9469 12.5786 18.9469 12.68 18.9469 12.7735C18.9469 12.867 18.9391 12.9684 18.9236 13.0775H18.644H8.01874C8.09641 13.6855 8.27505 14.2467 8.55466 14.7612C8.83427 15.2756 9.18378 15.7278 9.6032 16.1175C10.0382 16.5072 10.5352 16.8112 11.0945 17.0295C11.6537 17.2478 12.244 17.3569 12.8653 17.3569C13.3158 17.3569 13.743 17.2711 14.1469 17.0996C14.5508 16.9282 14.9081 16.6865 15.2187 16.3747L16.0809 17.24C15.677 17.6453 15.1954 17.9727 14.6362 18.2221C14.0925 18.456 13.5022 18.5729 12.8653 18.5729Z" fill="#FAFAFA"/>
<path d="M26.6049 18.456C25.7661 18.456 24.9738 18.3001 24.2282 17.9883C23.4981 17.6609 22.8534 17.2244 22.2942 16.6787C21.7505 16.1175 21.3156 15.4705 20.9894 14.7378C20.6787 13.9895 20.5233 13.1944 20.5233 12.3526C20.5233 11.5107 20.6787 10.7156 20.9894 9.96734C21.3156 9.21903 21.7505 8.57206 22.2942 8.02642C22.8534 7.46519 23.4981 7.02867 24.2282 6.71688C24.9738 6.38949 25.7661 6.2258 26.6049 6.2258C27.2418 6.2258 27.8321 6.35052 28.3758 6.59996C28.935 6.8338 29.4243 7.16119 29.8437 7.58211L28.9816 8.44734C28.6709 8.13555 28.3136 7.8939 27.9098 7.72242C27.5059 7.55093 27.0709 7.46519 26.6049 7.46519C25.9369 7.46519 25.3078 7.5977 24.7175 7.86272C24.1272 8.11216 23.6068 8.45513 23.1564 8.89165C22.7214 9.32816 22.3719 9.85042 22.1078 10.4584C21.8593 11.0508 21.735 11.6822 21.735 12.3526C21.735 13.0229 21.8593 13.6543 22.1078 14.2467C22.3719 14.8391 22.7214 15.3614 23.1564 15.8135C23.6068 16.25 24.1272 16.6008 24.7175 16.8658C25.3078 17.1152 25.9369 17.24 26.6049 17.24C27.0709 17.24 27.5059 17.1542 27.9098 16.9827C28.3136 16.8112 28.6709 16.5696 28.9816 16.2578L29.8437 17.123C29.4243 17.5284 28.935 17.8558 28.3758 18.1052C27.8321 18.339 27.2418 18.456 26.6049 18.456Z" fill="#FAFAFA"/>
<path d="M36.1508 6.29596C36.9897 6.29596 37.7586 6.50642 38.4576 6.92734C39.1567 7.34826 39.7081 7.90949 40.112 8.61103C40.5159 7.90949 41.0596 7.34826 41.7431 6.92734C42.4421 6.50642 43.2188 6.29596 44.0732 6.29596C44.6945 6.29596 45.2848 6.42067 45.844 6.67011C46.4033 6.90395 46.8848 7.23134 47.2887 7.65226C47.7081 8.0576 48.0343 8.54088 48.2673 9.10211C48.5159 9.66334 48.6402 10.2558 48.6402 10.8793V18.2689H47.4052V10.8793C47.4052 10.4116 47.3198 9.97514 47.1489 9.5698C46.978 9.16447 46.7372 8.8137 46.4266 8.51749C46.1314 8.2057 45.7819 7.96406 45.378 7.79257C44.9741 7.62108 44.5392 7.53534 44.0732 7.53534C43.6071 7.53534 43.1644 7.62108 42.745 7.79257C42.3411 7.96406 41.9838 8.2057 41.6732 8.51749C41.378 8.8137 41.145 9.16447 40.9741 9.5698C40.8033 9.97514 40.7178 10.4116 40.7178 10.8793V18.2689H39.5062V10.8793C39.5062 10.4116 39.413 9.97514 39.2266 9.5698C39.0557 9.16447 38.8149 8.8137 38.5042 8.51749C38.2091 8.2057 37.8596 7.96406 37.4557 7.79257C37.0518 7.62108 36.6169 7.53534 36.1508 7.53534C35.6848 7.53534 35.2421 7.62108 34.8227 7.79257C34.4188 7.96406 34.0615 8.2057 33.7508 8.51749C33.4557 8.8137 33.2227 9.16447 33.0518 9.5698C32.8809 9.97514 32.7955 10.4116 32.7955 10.8793V18.2689H31.5838V10.8793C31.5838 10.2558 31.7003 9.66334 31.9334 9.10211C32.1819 8.54088 32.5081 8.0576 32.912 7.65226C33.3314 7.23134 33.813 6.90395 34.3567 6.67011C34.9159 6.42067 35.5139 6.29596 36.1508 6.29596Z" fill="#FAFAFA"/>
<path d="M57.052 6.29596C57.8908 6.29596 58.6753 6.45965 59.4054 6.78703C60.151 7.09883 60.7957 7.53534 61.3394 8.09657C61.8986 8.64221 62.3335 9.28919 62.6442 10.0375C62.9704 10.7858 63.1335 11.5809 63.1335 12.4227C63.1335 13.2646 62.9704 14.0596 62.6442 14.808C62.3335 15.5407 61.8986 16.1876 61.3394 16.7489C60.7957 17.2945 60.151 17.731 59.4054 18.0584C58.6753 18.3702 57.8908 18.5261 57.052 18.5261C56.2132 18.5261 55.4209 18.3702 54.6753 18.0584C53.9452 17.731 53.3005 17.2945 52.7413 16.7489C52.1976 16.1876 51.7627 15.5407 51.4365 14.808C51.1258 14.0596 50.9704 13.2646 50.9704 12.4227C50.9704 11.5809 51.1258 10.7858 51.4365 10.0375C51.7627 9.28919 52.1976 8.64221 52.7413 8.09657C53.3005 7.53534 53.9452 7.09883 54.6753 6.78703C55.4209 6.45965 56.2132 6.29596 57.052 6.29596ZM57.052 7.53534C56.3685 7.53534 55.7316 7.66785 55.1413 7.93288C54.551 8.18231 54.0384 8.52529 53.6034 8.9618C53.1685 9.39832 52.819 9.92057 52.5549 10.5286C52.3064 11.121 52.1821 11.7524 52.1821 12.4227C52.1821 13.0931 52.3064 13.7245 52.5549 14.3169C52.819 14.9093 53.1685 15.4315 53.6034 15.8836C54.0384 16.3202 54.551 16.6709 55.1413 16.936C55.7316 17.1854 56.3685 17.3101 57.052 17.3101C57.7199 17.3101 58.3491 17.1854 58.9394 16.936C59.5297 16.6709 60.0423 16.3202 60.4772 15.8836C60.9277 15.4315 61.2772 14.9093 61.5258 14.3169C61.7899 13.7245 61.9219 13.0931 61.9219 12.4227C61.9219 11.7524 61.7899 11.121 61.5258 10.5286C61.2772 9.92057 60.9277 9.39832 60.4772 8.9618C60.0423 8.52529 59.5297 8.18231 58.9394 7.93288C58.3491 7.66785 57.7199 7.53534 57.052 7.53534Z" fill="#FAFAFA"/>
<path d="M64.9647 3.55996H66.1763V6.62334H70.5802V7.83934H66.1763V15.3926C66.1763 15.8914 66.355 16.3202 66.7122 16.6787C67.0695 17.0373 67.5045 17.2166 68.0171 17.2166C68.5142 17.2166 68.9414 17.0373 69.2986 16.6787C69.6559 16.3202 69.8346 15.8914 69.8346 15.3926H71.0462C71.0462 15.8135 70.9686 16.211 70.8132 16.5852C70.6579 16.9593 70.4404 17.2867 70.1608 17.5673C69.8812 17.8324 69.555 18.0506 69.1821 18.2221C68.8249 18.378 68.4365 18.456 68.0171 18.456C67.5977 18.456 67.2016 18.378 66.8287 18.2221C66.4559 18.0506 66.1297 17.8324 65.8501 17.5673C65.586 17.2867 65.3686 16.9593 65.1977 16.5852C65.0423 16.211 64.9647 15.8135 64.9647 15.3926V3.55996Z" fill="#FAFAFA"/>
<path d="M83.1088 11.8615C83.0312 11.2535 82.8525 10.6923 82.5729 10.1778C82.2933 9.66334 81.936 9.21124 81.5011 8.82149C81.0817 8.43175 80.5923 8.12775 80.0331 7.90949C79.4894 7.69124 78.9069 7.58211 78.2855 7.58211C77.6642 7.58211 77.0739 7.69124 76.5147 7.90949C75.9554 8.12775 75.4584 8.43175 75.0234 8.82149C74.604 9.21124 74.2545 9.66334 73.9749 10.1778C73.6953 10.6923 73.5166 11.2535 73.4389 11.8615H83.1088ZM78.2855 18.5729C77.4467 18.5729 76.6545 18.417 75.9088 18.1052C75.1632 17.7778 74.5108 17.3413 73.9516 16.7956C73.4079 16.2344 72.9729 15.5874 72.6467 14.8547C72.336 14.1064 72.1807 13.3113 72.1807 12.4695C72.1807 11.6276 72.336 10.8326 72.6467 10.0843C72.9729 9.33596 73.4079 8.68898 73.9516 8.14334C74.5108 7.58211 75.1632 7.1456 75.9088 6.8338C76.6545 6.50642 77.4467 6.34272 78.2855 6.34272C79.1244 6.34272 79.9088 6.50642 80.6389 6.8338C81.3846 7.1456 82.0292 7.58211 82.5729 8.14334C83.1321 8.68898 83.5671 9.33596 83.8778 10.0843C84.204 10.8326 84.3671 11.6276 84.3671 12.4695C84.3671 12.5786 84.3671 12.68 84.3671 12.7735C84.3671 12.867 84.3593 12.9684 84.3438 13.0775H84.0642H73.4389C73.5166 13.6855 73.6953 14.2467 73.9749 14.7612C74.2545 15.2756 74.604 15.7278 75.0234 16.1175C75.4584 16.5072 75.9554 16.8112 76.5147 17.0295C77.0739 17.2478 77.6642 17.3569 78.2855 17.3569C78.736 17.3569 79.1632 17.2711 79.5671 17.0996C79.971 16.9282 80.3283 16.6865 80.6389 16.3747L81.5011 17.24C81.0972 17.6453 80.6156 17.9727 80.0564 18.2221C79.5127 18.456 78.9224 18.5729 78.2855 18.5729Z" fill="#FAFAFA"/>
<path d="M94.3206 12.8904C93.9167 12.8904 93.5284 12.8203 93.1556 12.68C92.7983 12.5241 92.4798 12.3214 92.2002 12.072C91.9361 11.8069 91.7187 11.5029 91.5478 11.16C91.3925 10.8014 91.307 10.4194 91.2915 10.0141C91.2604 9.79585 91.2604 9.56201 91.2915 9.31257C91.307 8.90724 91.3925 8.53308 91.5478 8.19011C91.7187 7.83155 91.9361 7.52754 92.2002 7.27811C92.4798 7.01308 92.7983 6.81042 93.1556 6.67011C93.5284 6.51421 93.9167 6.43626 94.3206 6.43626H98.7012V7.65226H94.3206C93.8391 7.65226 93.4196 7.81596 93.0624 8.14334C92.7206 8.47072 92.5342 8.87606 92.5031 9.35934C92.4721 9.56201 92.4721 9.76467 92.5031 9.96734C92.5342 10.4506 92.7206 10.856 93.0624 11.1833C93.4196 11.5107 93.8391 11.6744 94.3206 11.6744H96.0449H96.0682C96.4721 11.6744 96.8526 11.7524 97.2099 11.9083C97.5827 12.0486 97.9012 12.2512 98.1653 12.5163C98.4449 12.7813 98.6624 13.0931 98.8177 13.4516C98.9886 13.7946 99.0818 14.1688 99.0973 14.5741V15.2055V15.2289V15.2756C99.0973 15.6966 99.0119 16.0863 98.841 16.4449C98.6857 16.8034 98.4682 17.123 98.1886 17.4036C97.909 17.6687 97.5827 17.8791 97.2099 18.035C96.8526 18.1909 96.4643 18.2689 96.0449 18.2689H91.5478V17.0529H96.0449C96.4954 17.0529 96.8915 16.9126 97.2332 16.632C97.575 16.3358 97.7847 15.9616 97.8624 15.5095C97.8624 15.4627 97.8624 15.416 97.8624 15.3692C97.8779 15.3068 97.8857 15.2523 97.8857 15.2055V14.7144C97.8701 14.2155 97.6837 13.7868 97.3264 13.4283C96.9692 13.0697 96.542 12.8904 96.0449 12.8904H94.3206Z" fill="#FAFAFA"/>
<path d="M101.259 3.55996H102.47V6.62334H106.874V7.83934H102.47V15.3926C102.47 15.8914 102.649 16.3202 103.006 16.6787C103.364 17.0373 103.798 17.2166 104.311 17.2166C104.808 17.2166 105.235 17.0373 105.593 16.6787C105.95 16.3202 106.129 15.8914 106.129 15.3926H107.34C107.34 15.8135 107.263 16.211 107.107 16.5852C106.952 16.9593 106.734 17.2867 106.455 17.5673C106.175 17.8324 105.849 18.0506 105.476 18.2221C105.119 18.378 104.731 18.456 104.311 18.456C103.892 18.456 103.496 18.378 103.123 18.2221C102.75 18.0506 102.424 17.8324 102.144 17.5673C101.88 17.2867 101.663 16.9593 101.492 16.5852C101.336 16.211 101.259 15.8135 101.259 15.3926V3.55996Z" fill="#FAFAFA"/>
<path d="M113.654 18.5027C113.017 18.5027 112.419 18.3858 111.86 18.152C111.316 17.9025 110.834 17.5751 110.415 17.1698C110.011 16.7489 109.685 16.2656 109.436 15.72C109.203 15.1587 109.087 14.5585 109.087 13.9193V6.55319H110.299V13.9193C110.299 14.387 110.384 14.8313 110.555 15.2523C110.726 15.6576 110.959 16.0162 111.254 16.328C111.565 16.6242 111.922 16.858 112.326 17.0295C112.745 17.201 113.188 17.2867 113.654 17.2867C114.12 17.2867 114.555 17.201 114.959 17.0295C115.363 16.858 115.712 16.6242 116.007 16.328C116.318 16.0162 116.559 15.6576 116.73 15.2523C116.9 14.8313 116.986 14.387 116.986 13.9193V6.55319H118.221V13.9193C118.221 14.5585 118.097 15.1587 117.848 15.72C117.615 16.2656 117.289 16.7489 116.869 17.1698C116.466 17.5751 115.984 17.9025 115.425 18.152C114.866 18.3858 114.275 18.5027 113.654 18.5027Z" fill="#FAFAFA"/>
<path d="M126.388 6.27257C127.398 6.27257 128.322 6.49862 129.161 6.95072C130 7.38724 130.699 7.97965 131.258 8.72796V0.707031H132.47V12.3993C132.47 13.2412 132.307 14.0363 131.98 14.7846C131.67 15.5173 131.235 16.1643 130.676 16.7255C130.132 17.2711 129.487 17.7076 128.742 18.035C128.012 18.3468 127.227 18.5027 126.388 18.5027C125.549 18.5027 124.757 18.3468 124.012 18.035C123.281 17.7076 122.637 17.2711 122.078 16.7255C121.534 16.1643 121.099 15.5173 120.773 14.7846C120.462 14.0363 120.307 13.2412 120.307 12.3993C120.307 11.5575 120.462 10.7624 120.773 10.0141C121.099 9.2658 121.534 8.61883 122.078 8.07319C122.637 7.51196 123.281 7.07544 124.012 6.76365C124.757 6.43626 125.549 6.27257 126.388 6.27257ZM126.388 7.51195C125.72 7.51195 125.091 7.64447 124.501 7.90949C123.911 8.15893 123.39 8.5019 122.94 8.93842C122.505 9.37493 122.155 9.89719 121.891 10.5052C121.643 11.0976 121.518 11.729 121.518 12.3993C121.518 13.0697 121.643 13.7011 121.891 14.2935C122.155 14.8859 122.505 15.4082 122.94 15.8603C123.39 16.2968 123.911 16.6475 124.501 16.9126C125.091 17.162 125.72 17.2867 126.388 17.2867C127.056 17.2867 127.685 17.162 128.276 16.9126C128.866 16.6475 129.379 16.2968 129.813 15.8603C130.264 15.4082 130.613 14.8859 130.862 14.2935C131.126 13.7011 131.258 13.0697 131.258 12.3993C131.258 11.729 131.126 11.0976 130.862 10.5052C130.613 9.89719 130.264 9.37493 129.813 8.93842C129.379 8.5019 128.866 8.15893 128.276 7.90949C127.685 7.64447 127.056 7.51195 126.388 7.51195Z" fill="#FAFAFA"/>
<path d="M134.436 6.57657H135.648V18.2689H134.436V6.57657ZM134.436 0.730416H135.648V2.71811H134.436V0.730416Z" fill="#FAFAFA"/>
<path d="M143.998 6.29596C144.837 6.29596 145.622 6.45965 146.352 6.78703C147.097 7.09883 147.742 7.53534 148.286 8.09657C148.845 8.64221 149.28 9.28919 149.591 10.0375C149.917 10.7858 150.08 11.5809 150.08 12.4227C150.08 13.2646 149.917 14.0596 149.591 14.808C149.28 15.5407 148.845 16.1876 148.286 16.7489C147.742 17.2945 147.097 17.731 146.352 18.0584C145.622 18.3702 144.837 18.5261 143.998 18.5261C143.159 18.5261 142.367 18.3702 141.622 18.0584C140.891 17.731 140.247 17.2945 139.688 16.7489C139.144 16.1876 138.709 15.5407 138.383 14.808C138.072 14.0596 137.917 13.2646 137.917 12.4227C137.917 11.5809 138.072 10.7858 138.383 10.0375C138.709 9.28919 139.144 8.64221 139.688 8.09657C140.247 7.53534 140.891 7.09883 141.622 6.78703C142.367 6.45965 143.159 6.29596 143.998 6.29596ZM143.998 7.53534C143.315 7.53534 142.678 7.66785 142.088 7.93288C141.497 8.18231 140.985 8.52529 140.55 8.9618C140.115 9.39832 139.765 9.92057 139.501 10.5286C139.253 11.121 139.128 11.7524 139.128 12.4227C139.128 13.0931 139.253 13.7245 139.501 14.3169C139.765 14.9093 140.115 15.4315 140.55 15.8836C140.985 16.3202 141.497 16.6709 142.088 16.936C142.678 17.1854 143.315 17.3101 143.998 17.3101C144.666 17.3101 145.295 17.1854 145.886 16.936C146.476 16.6709 146.989 16.3202 147.424 15.8836C147.874 15.4315 148.224 14.9093 148.472 14.3169C148.736 13.7245 148.868 13.0931 148.868 12.4227C148.868 11.7524 148.736 11.121 148.472 10.5286C148.224 9.92057 147.874 9.39832 147.424 8.9618C146.989 8.52529 146.476 8.18231 145.886 7.93288C145.295 7.66785 144.666 7.53534 143.998 7.53534Z" fill="#FAFAFA"/>
</svg>
