<svg width="168" height="30" viewBox="0 0 168 30" fill="none" xmlns="http://www.w3.org/2000/svg">
<path d="M2.69235 28.9789H0.296631V17.4611C0.296631 15.8025 0.603774 14.2361 1.21806 12.7618C1.86306 11.2875 2.72306 10.0129 3.79806 8.93785C4.90377 7.83214 6.17842 6.97214 7.62199 6.35786C9.09627 5.71286 10.6627 5.39036 12.3213 5.39036V7.83214C11.0006 7.83214 9.75663 8.09321 8.58949 8.61536C7.42235 9.10678 6.39342 9.7825 5.5027 10.6425C4.6427 11.5025 3.95163 12.5314 3.42949 13.7293C2.93806 14.8964 2.69235 16.1404 2.69235 17.4611V28.9789Z" fill="#FAFAFA"/>
<path d="M35.317 16.3554C35.1635 15.1575 34.8102 14.0518 34.2574 13.0382C33.7045 12.0246 32.9981 11.1339 32.1381 10.3661C31.3088 9.59821 30.3413 8.99928 29.2356 8.56928C28.1606 8.13928 27.0088 7.92428 25.7802 7.92428C24.5517 7.92428 23.3845 8.13928 22.2788 8.56928C21.1731 8.99928 20.1902 9.59821 19.3302 10.3661C18.501 11.1339 17.8099 12.0246 17.257 13.0382C16.7042 14.0518 16.351 15.1575 16.1974 16.3554H35.317ZM25.7802 29.5779C24.1217 29.5779 22.5552 29.2707 21.081 28.6564C19.6067 28.0114 18.3167 27.1514 17.211 26.0764C16.136 24.9707 15.276 23.6961 14.631 22.2525C14.0167 20.7782 13.7095 19.2118 13.7095 17.5532C13.7095 15.8946 14.0167 14.3282 14.631 12.8539C15.276 11.3796 16.136 10.105 17.211 9.03C18.3167 7.92428 19.6067 7.06429 21.081 6.45C22.5552 5.805 24.1217 5.4825 25.7802 5.4825C27.4388 5.4825 28.9899 5.805 30.4335 6.45C31.9077 7.06429 33.1824 7.92428 34.2574 9.03C35.3631 10.105 36.2231 11.3796 36.8374 12.8539C37.4824 14.3282 37.8049 15.8946 37.8049 17.5532C37.8049 17.7682 37.8049 17.9679 37.8049 18.1521C37.8049 18.3364 37.7895 18.5361 37.7588 18.7511H37.206H16.1974C16.351 19.9489 16.7042 21.0546 17.257 22.0682C17.8099 23.0818 18.501 23.9725 19.3302 24.7404C20.1902 25.5082 21.1731 26.1071 22.2788 26.5371C23.3845 26.9671 24.5517 27.1821 25.7802 27.1821C26.671 27.1821 27.5156 27.0132 28.3142 26.6754C29.1127 26.3375 29.8192 25.8614 30.4335 25.2471L32.1381 26.9518C31.3395 27.7504 30.3874 28.3954 29.2817 28.8868C28.2067 29.3475 27.0395 29.5779 25.7802 29.5779Z" fill="#FAFAFA"/>
<path d="M52.9466 29.3475C51.288 29.3475 49.7216 29.0404 48.2473 28.4261C46.8037 27.7811 45.5291 26.9211 44.4233 25.8461C43.3483 24.7404 42.4883 23.4657 41.8433 22.0221C41.2291 20.5479 40.9219 18.9814 40.9219 17.3229C40.9219 15.6643 41.2291 14.0979 41.8433 12.6236C42.4883 11.1493 43.3483 9.87464 44.4233 8.79964C45.5291 7.69393 46.8037 6.83393 48.2473 6.21964C49.7216 5.57464 51.288 5.25214 52.9466 5.25214C54.2058 5.25214 55.373 5.49786 56.448 5.98928C57.5537 6.45 58.5212 7.095 59.3505 7.92428L57.6458 9.62893C57.0316 9.01464 56.3251 8.53857 55.5266 8.20071C54.728 7.86286 53.868 7.69393 52.9466 7.69393C51.6258 7.69393 50.3819 7.955 49.2148 8.47714C48.0476 8.96857 47.0187 9.64429 46.128 10.5043C45.268 11.3643 44.5769 12.3932 44.0548 13.5911C43.5633 14.7582 43.3176 16.0021 43.3176 17.3229C43.3176 18.6436 43.5633 19.8875 44.0548 21.0546C44.5769 22.2218 45.268 23.2507 46.128 24.1414C47.0187 25.0014 48.0476 25.6925 49.2148 26.2146C50.3819 26.7061 51.6258 26.9518 52.9466 26.9518C53.868 26.9518 54.728 26.7829 55.5266 26.445C56.3251 26.1071 57.0316 25.6311 57.6458 25.0168L59.3505 26.7214C58.5212 27.52 57.5537 28.165 56.448 28.6564C55.373 29.1171 54.2058 29.3475 52.9466 29.3475Z" fill="#FAFAFA"/>
<path d="M71.8211 5.39036C73.4797 5.39036 75 5.805 76.3821 6.63428C77.7643 7.46357 78.8547 8.56928 79.6532 9.95143C80.4518 8.56928 81.5268 7.46357 82.8782 6.63428C84.2604 5.805 85.7961 5.39036 87.4854 5.39036C88.7139 5.39036 89.8811 5.63607 90.9868 6.1275C92.0925 6.58821 93.0447 7.23321 93.8432 8.0625C94.6725 8.86107 95.3175 9.81321 95.7782 10.9189C96.2697 12.0246 96.5154 13.1918 96.5154 14.4204V28.9789H94.0736V14.4204C94.0736 13.4989 93.9046 12.6389 93.5668 11.8404C93.2289 11.0418 92.7529 10.3507 92.1386 9.76714C91.555 9.15286 90.8639 8.67679 90.0654 8.33893C89.2668 8.00107 88.4068 7.83214 87.4854 7.83214C86.5639 7.83214 85.6886 8.00107 84.8593 8.33893C84.0607 8.67679 83.3543 9.15286 82.74 9.76714C82.1564 10.3507 81.6957 11.0418 81.3579 11.8404C81.02 12.6389 80.8511 13.4989 80.8511 14.4204V28.9789H78.4554V14.4204C78.4554 13.4989 78.2711 12.6389 77.9025 11.8404C77.5647 11.0418 77.0886 10.3507 76.4743 9.76714C75.8907 9.15286 75.1997 8.67679 74.4011 8.33893C73.6025 8.00107 72.7425 7.83214 71.8211 7.83214C70.8997 7.83214 70.0243 8.00107 69.195 8.33893C68.3964 8.67679 67.69 9.15286 67.0757 9.76714C66.4921 10.3507 66.0314 11.0418 65.6936 11.8404C65.3557 12.6389 65.1868 13.4989 65.1868 14.4204V28.9789H62.7911V14.4204C62.7911 13.1918 63.0214 12.0246 63.4822 10.9189C63.9736 9.81321 64.6186 8.86107 65.4172 8.0625C66.2464 7.23321 67.1986 6.58821 68.2736 6.1275C69.3793 5.63607 70.5618 5.39036 71.8211 5.39036Z" fill="#FAFAFA"/>
<path d="M113.148 5.39036C114.806 5.39036 116.357 5.71286 117.801 6.35786C119.275 6.97214 120.55 7.83214 121.625 8.93785C122.73 10.0129 123.59 11.2875 124.205 12.7618C124.85 14.2361 125.172 15.8025 125.172 17.4611C125.172 19.1196 124.85 20.6861 124.205 22.1604C123.59 23.6039 122.73 24.8786 121.625 25.9843C120.55 27.0593 119.275 27.9193 117.801 28.5643C116.357 29.1786 114.806 29.4857 113.148 29.4857C111.489 29.4857 109.923 29.1786 108.448 28.5643C107.005 27.9193 105.73 27.0593 104.624 25.9843C103.549 24.8786 102.689 23.6039 102.044 22.1604C101.43 20.6861 101.123 19.1196 101.123 17.4611C101.123 15.8025 101.43 14.2361 102.044 12.7618C102.689 11.2875 103.549 10.0129 104.624 8.93785C105.73 7.83214 107.005 6.97214 108.448 6.35786C109.923 5.71286 111.489 5.39036 113.148 5.39036ZM113.148 7.83214C111.796 7.83214 110.537 8.09321 109.37 8.61536C108.203 9.10678 107.189 9.7825 106.329 10.6425C105.469 11.5025 104.778 12.5314 104.256 13.7293C103.764 14.8964 103.519 16.1404 103.519 17.4611C103.519 18.7818 103.764 20.0257 104.256 21.1929C104.778 22.36 105.469 23.3889 106.329 24.2796C107.189 25.1396 108.203 25.8307 109.37 26.3529C110.537 26.8443 111.796 27.09 113.148 27.09C114.468 27.09 115.712 26.8443 116.879 26.3529C118.046 25.8307 119.06 25.1396 119.92 24.2796C120.811 23.3889 121.502 22.36 121.993 21.1929C122.515 20.0257 122.776 18.7818 122.776 17.4611C122.776 16.1404 122.515 14.8964 121.993 13.7293C121.502 12.5314 120.811 11.5025 119.92 10.6425C119.06 9.7825 118.046 9.10678 116.879 8.61536C115.712 8.09321 114.468 7.83214 113.148 7.83214Z" fill="#FAFAFA"/>
<path d="M128.793 0H131.188V6.03536H139.896V8.43107H131.188V23.3121C131.188 24.295 131.542 25.1396 132.248 25.8461C132.954 26.5525 133.815 26.9057 134.828 26.9057C135.811 26.9057 136.656 26.5525 137.362 25.8461C138.068 25.1396 138.422 24.295 138.422 23.3121H140.817C140.817 24.1414 140.664 24.9246 140.357 25.6618C140.049 26.3989 139.62 27.0439 139.067 27.5968C138.514 28.1189 137.869 28.5489 137.132 28.8868C136.425 29.1939 135.657 29.3475 134.828 29.3475C133.999 29.3475 133.216 29.1939 132.478 28.8868C131.741 28.5489 131.096 28.1189 130.543 27.5968C130.021 27.0439 129.591 26.3989 129.253 25.6618C128.946 24.9246 128.793 24.1414 128.793 23.3121V0Z" fill="#FAFAFA"/>
<path d="M164.668 16.3554C164.514 15.1575 164.161 14.0518 163.608 13.0382C163.055 12.0246 162.349 11.1339 161.489 10.3661C160.66 9.59821 159.692 8.99928 158.587 8.56928C157.512 8.13928 156.36 7.92428 155.131 7.92428C153.903 7.92428 152.735 8.13928 151.63 8.56928C150.524 8.99928 149.541 9.59821 148.681 10.3661C147.852 11.1339 147.161 12.0246 146.608 13.0382C146.055 14.0518 145.702 15.1575 145.548 16.3554H164.668ZM155.131 29.5779C153.473 29.5779 151.906 29.2707 150.432 28.6564C148.958 28.0114 147.668 27.1514 146.562 26.0764C145.487 24.9707 144.627 23.6961 143.982 22.2525C143.368 20.7782 143.06 19.2118 143.06 17.5532C143.06 15.8946 143.368 14.3282 143.982 12.8539C144.627 11.3796 145.487 10.105 146.562 9.03C147.668 7.92428 148.958 7.06429 150.432 6.45C151.906 5.805 153.473 5.4825 155.131 5.4825C156.79 5.4825 158.341 5.805 159.784 6.45C161.259 7.06429 162.533 7.92428 163.608 9.03C164.714 10.105 165.574 11.3796 166.188 12.8539C166.833 14.3282 167.156 15.8946 167.156 17.5532C167.156 17.7682 167.156 17.9679 167.156 18.1521C167.156 18.3364 167.14 18.5361 167.11 18.7511H166.557H145.548C145.702 19.9489 146.055 21.0546 146.608 22.0682C147.161 23.0818 147.852 23.9725 148.681 24.7404C149.541 25.5082 150.524 26.1071 151.63 26.5371C152.735 26.9671 153.903 27.1821 155.131 27.1821C156.022 27.1821 156.867 27.0132 157.665 26.6754C158.464 26.3375 159.17 25.8614 159.784 25.2471L161.489 26.9518C160.69 27.7504 159.738 28.3954 158.633 28.8868C157.558 29.3475 156.39 29.5779 155.131 29.5779Z" fill="#FAFAFA"/>
</svg>
