<svg width="94" height="81" viewBox="0 0 94 81" fill="none" xmlns="http://www.w3.org/2000/svg">
<path d="M38.6 0.714844C40.9196 0.714844 42.8 2.56417 42.8 4.84542V76.4421C42.8 78.7234 40.9196 80.5727 38.6 80.5727C36.2804 80.5727 34.4 78.7234 34.4 76.4421V4.84542C34.4 2.56417 36.2804 0.714844 38.6 0.714844ZM21.8 13.1066C24.1196 13.1066 26 14.9559 26 17.2372V64.0504C26 66.3316 24.1196 68.181 21.8 68.181C19.4805 68.181 17.6 66.3316 17.6 64.0504V17.2372C17.6 14.9559 19.4805 13.1066 21.8 13.1066ZM55.4 13.1066C57.7196 13.1066 59.6 14.9559 59.6 17.2372V64.0504C59.6 66.3316 57.7196 68.181 55.4 68.181C53.0804 68.181 51.2 66.3316 51.2 64.0504V17.2372C51.2 14.9559 53.0804 13.1066 55.4 13.1066ZM89 13.1066C91.3196 13.1066 93.2 14.9559 93.2 17.2372V64.0504C93.2 66.3316 91.3196 68.181 89 68.181C86.6804 68.181 84.8 66.3316 84.8 64.0504V17.2372C84.8 14.9559 86.6804 13.1066 89 13.1066ZM5.00005 26.8752C7.31964 26.8752 9.20005 28.7245 9.20005 31.0058V50.2818C9.20005 52.5631 7.31964 54.4124 5.00005 54.4124C2.68045 54.4124 0.800049 52.5631 0.800049 50.2818V31.0058C0.800049 28.7245 2.68045 26.8752 5.00005 26.8752ZM72.2 26.8752C74.5196 26.8752 76.4 28.7245 76.4 31.0058V50.2818C76.4 52.5631 74.5196 54.4124 72.2 54.4124C69.8804 54.4124 68 52.5631 68 50.2818V31.0058C68 28.7245 69.8804 26.8752 72.2 26.8752Z" fill="#FAFAFA"/>
</svg>
