<svg width="16" height="14" viewBox="0 0 16 14" fill="none" xmlns="http://www.w3.org/2000/svg">
<path d="M15.248 5.73158C13.621 9.20958 9.69 13.9446 7.206 13.9446C4.758 13.9446 4.404 8.72358 3.067 5.24858C2.41 3.53958 1.985 3.93158 0.752 4.79458L0 3.82458C1.798 2.24358 3.599 0.406584 4.705 0.304584C5.95 0.184584 6.717 1.03558 7.004 2.85858C7.383 5.25458 7.912 8.97258 8.836 8.97258C9.555 8.97258 11.331 6.02258 11.421 4.96858C11.582 3.42458 10.285 3.37758 9.16 3.85958C10.941 -1.97642 18.354 -0.901416 15.248 5.73158Z" fill="#FAFAFA"/>
</svg>
