<svg width="88" height="66" viewBox="0 0 88 66" fill="none" xmlns="http://www.w3.org/2000/svg">
<path d="M44.3797 53.9638C45.9172 53.9612 47.3927 54.5574 48.4818 55.6215C49.5709 56.6856 50.1842 58.1304 50.187 59.6379C50.187 62.769 47.6003 65.3083 44.4072 65.312C41.214 65.3157 38.6212 62.7824 38.6136 59.6513C38.6061 56.5203 41.1865 53.975 44.3797 53.9638ZM58.1174 41.9559C59.1999 42.8329 60.1951 43.8087 61.0894 44.8702C62.616 46.6822 62.3554 49.3645 60.5075 50.8614C58.7306 52.3006 56.1331 52.1198 54.5788 50.4929L54.3975 50.2908C53.8533 49.6449 53.2479 49.0512 52.5892 48.5177C46.9533 43.9525 38.6603 44.6326 33.8701 49.9829L33.6027 50.2908C32.0762 52.1027 29.3406 52.3582 27.4927 50.8614C25.6448 49.3645 25.3842 46.6822 26.9108 44.8702C34.7075 35.6156 48.6792 34.3109 58.1174 41.9559ZM74.583 31.1045C74.8442 31.3606 75.1021 31.6201 75.3566 31.8828C77.0075 33.5867 76.937 36.2803 75.1993 37.8991C73.4615 39.5178 70.7145 39.4487 69.0636 37.7448C68.8602 37.5349 68.6541 37.3275 68.4453 37.1227C55.0887 24.026 33.519 23.891 19.993 36.7177L19.573 37.1227L18.8589 37.8229C17.1641 39.4848 14.4161 39.4848 12.7213 37.8229C11.0942 36.2275 11.0291 33.6804 12.526 32.0089L12.7213 31.8046L13.4353 31.1045C30.3208 14.5475 57.6975 14.5475 74.583 31.1045ZM84.7254 16.9275C85.2302 17.4136 85.7259 17.9087 86.2122 18.4126C87.8598 20.1196 87.7842 22.813 86.0433 24.4286C84.3025 26.0441 81.5556 25.97 79.908 24.263C79.4943 23.8344 79.0726 23.4132 78.6433 22.9997C59.3609 4.43014 28.4942 4.5154 9.31758 23.0499L8.74007 23.6173L8.03646 24.3197C6.35693 25.9965 3.6091 26.0208 1.89903 24.3739C0.257354 22.7929 0.168873 20.2466 1.65037 18.5619L1.84373 18.3559L2.54734 17.6534C25.0358 -4.7984 61.8281 -5.12341 84.7254 16.9275Z" fill="#FAFAFA"/>
</svg>
